<svg enable-background="new 0 0 512 512" height="512" viewBox="0 0 512 512" width="512" xmlns="http://www.w3.org/2000/svg"><g id="_x33_1_Online_Tutorial"><g><path d="m388.184 52.98v217.27c0 22.993-18.64 41.633-41.633 41.633h-293.51c-22.993 0-41.633-18.64-41.633-41.633v-217.27c0-22.993 18.64-41.633 41.633-41.633h293.51c22.993 0 41.633 18.64 41.633 41.633z" fill="#f14f4a"/><path d="m388.184 52.98v217.27c0 23.002-18.631 41.633-41.633 41.633h-293.51c-23.002 0-41.633-18.631-41.633-41.633v-6.713c19.932 4.58 40.696 7.026 62.033 7.026 146.495 0 266.189-114.698 274.203-259.164 22.482.52 40.54 18.943 40.54 41.581z" opacity=".12"/><path d="m293.415 161.594c0 51.724-41.936 93.66-93.619 93.66-51.724 0-93.619-41.936-93.619-93.66 0-51.683 41.895-93.619 93.619-93.619 51.683.001 93.619 41.937 93.619 93.619z" fill="#e8f1f8"/><path d="m245.264 161.615-71.099 50.295v-100.59z" fill="#f14f4a"/><path d="m500.592 401.796v49.268c0 27.32-22.147 49.467-49.467 49.467-27.32 0-49.467-22.147-49.467-49.467v-49.268c0-27.32 22.147-49.467 49.467-49.467 27.32.001 49.467 22.148 49.467 49.467z" fill="#e8f1f8"/><path d="m500.592 401.768v49.324c0 27.288-22.15 49.439-49.439 49.439-13.701 0-26.032-5.537-34.995-14.501-2.398-2.398-4.567-5.081-6.451-7.935 39.391-6.051 69.477-40.076 69.477-81.123 0-15.242-4.168-29.514-11.418-41.731 6.965 2.455 13.244 6.451 18.325 11.589 8.963 8.963 14.501 21.294 14.501 34.938z" opacity=".12"/><path d="m75.536 361.951v102.273c0 6.791 3.883 13.012 10.003 15.954 56.451 27.137 122.253 27.137 178.705 0 6.12-2.942 10.003-9.163 10.003-15.954v-102.273z" fill="#f78721"/><path d="m274.254 361.938v102.293c0 6.773-3.897 13.008-9.998 15.938-56.468 27.146-122.262 27.146-178.729 0-6.101-2.929-9.998-9.165-9.998-15.938v-28.301c19.082 13.976 42.599 22.2 68.052 22.2 57.167 0 104.631-41.605 113.742-96.191h16.931z" opacity=".12"/><path d="m326.494 375.065-133.504 46.344c-11.737 4.074-24.504 4.074-36.241-.001l-133.461-46.34c-15.826-5.495-15.826-27.877 0-33.372l133.501-46.353c11.739-4.076 24.509-4.075 36.248.001l133.459 46.348c15.826 5.497 15.824 27.879-.002 33.373z" fill="#474747"/><path d="m326.503 375.054-133.523 46.362c-11.718 4.058-24.485 4.058-36.23 0l-133.469-46.335c-15.83-5.51-15.83-27.898 0-33.381l1.021-.349c26.984 23.006 62.004 36.902 100.223 36.902 51.281 0 96.702-24.941 124.842-63.348l77.136 26.796c15.83 5.482 15.83 27.87 0 33.353z" opacity=".12"/><g><path d="m451.123 370.363c-2.876 0-5.204 2.33-5.204 5.204v22.928c0 2.874 2.328 5.204 5.204 5.204s5.204-2.33 5.204-5.204v-22.928c0-2.874-2.328-5.204-5.204-5.204z"/><path d="m417.199 219.058h28.719v113.156c0 2.874 2.328 5.204 5.204 5.204s5.204-2.33 5.204-5.204v-118.36c0-2.874-2.328-5.204-5.204-5.204h-33.923c-2.876 0-5.204 2.33-5.204 5.204s2.328 5.204 5.204 5.204z"/><path d="m199.797 62.771c-54.495 0-98.827 44.331-98.827 98.824 0 54.513 44.331 98.865 98.827 98.865 54.49 0 98.822-44.352 98.822-98.865 0-54.493-44.332-98.824-98.822-98.824zm0 187.28c-48.753 0-88.419-39.681-88.419-88.457 0-48.753 39.666-88.416 88.419-88.416s88.413 39.663 88.413 88.416c0 48.776-39.66 88.457-88.413 88.457z"/><path d="m451.123 347.125c-30.142 0-54.668 24.526-54.668 54.671v49.269c0 30.145 24.526 54.671 54.668 54.671 30.147 0 54.673-24.526 54.673-54.671v-49.269c0-30.145-24.526-54.671-54.673-54.671zm44.265 103.939c0 24.407-19.856 44.263-44.265 44.263-24.404 0-44.26-19.856-44.26-44.263v-49.269c0-24.407 19.856-44.263 44.26-44.263 24.409 0 44.265 19.856 44.265 44.263z"/><path d="m346.553 6.143h-293.512c-25.827 0-46.837 21.012-46.837 46.837v217.27c0 25.825 21.009 46.837 46.837 46.837h25.259l-56.717 19.693c-20.507 7.121-20.469 36.097 0 43.206l48.748 16.926v67.313c0 8.762 5.087 16.865 12.954 20.644 29.115 13.994 60.355 20.989 91.61 20.989 31.245 0 62.5-6.998 91.6-20.989 7.872-3.781 12.959-11.885 12.959-20.644v-67.319l48.748-16.922c1.801-.625 3.435-1.498 4.97-2.486v53.737c0 2.874 2.328 5.204 5.204 5.204s5.204-2.33 5.204-5.204v-72.857c0-.029-.016-.053-.017-.083-.036-9.845-6.053-18.286-15.362-21.519l-56.693-19.688h75.044c25.827 0 46.837-21.012 46.837-46.837v-217.271c.001-25.825-21.009-46.837-46.836-46.837zm-77.507 458.081c0 4.782-2.77 9.201-7.059 11.262-55.349 26.612-118.845 26.607-174.194 0-4.284-2.058-7.054-6.48-7.054-11.262v-63.699l74.306 25.799c12.812 4.445 26.894 4.431 39.656.003l74.346-25.808v63.705zm63.009-111.051h-157.165c-2.876 0-5.204 2.33-5.204 5.204s2.328 5.204 5.204 5.204h157.168c-1.207 2.737-3.486 5.256-7.271 6.569l-133.502 46.344c-10.586 3.677-22.249 3.674-32.825-.003l-133.462-46.339c-11.193-3.883-11.142-19.672 0-23.538l133.502-46.354c10.571-3.676 22.239-3.677 32.83.003l133.456 46.346c3.783 1.312 6.061 3.828 7.269 6.564zm50.927-82.923c0 20.087-16.344 36.429-36.429 36.429h-105.015l-46.792-16.25c-12.797-4.442-26.874-4.439-39.661-.003l-46.809 16.253h-55.235c-20.085 0-36.429-16.342-36.429-36.429v-217.27c0-20.087 16.344-36.429 36.429-36.429h293.512c20.085 0 36.429 16.342 36.429 36.429z"/><path d="m248.265 157.366-71.099-50.295c-3.429-2.429-8.208.021-8.208 4.249v100.59c0 4.223 4.773 6.678 8.208 4.249l71.099-50.295c2.93-2.068 2.934-6.426 0-8.498zm-68.898 44.489v-80.48l56.884 40.24z"/></g></g></g></svg>