<svg id="Layer_1" enable-background="new 0 0 128 128" height="512" viewBox="0 0 128 128" width="512" xmlns="http://www.w3.org/2000/svg" xmlns:xlink="http://www.w3.org/1999/xlink"><pattern id="Unnamed_Pattern_11" height="56" overflow="visible" patternUnits="userSpaceOnUse" viewBox="0 -56 56 56" width="56" x="-1596" y="-912"><g><path d="m0-56h56v56h-56z" fill="none"/><path d="m0-56h56v56h-56z" fill="#fff"/></g></pattern><pattern id="Unnamed_Pattern_12" height="56" overflow="visible" patternUnits="userSpaceOnUse" viewBox="0 -56 56 56" width="56" x="-1596" y="-912"><g><path d="m0-56h56v56h-56z" fill="none"/><path d="m0-56h56v56h-56z" fill="#da664b"/></g></pattern><pattern id="Unnamed_Pattern_13" height="56" overflow="visible" patternUnits="userSpaceOnUse" viewBox="0 -56 56 56" width="56" x="-1596" y="-912"><g><path d="m0-56h56v56h-56z" fill="none"/><path d="m0-56h56v56h-56z" fill="#f2f2f2"/></g></pattern><pattern id="Unnamed_Pattern_14" height="56" overflow="visible" patternUnits="userSpaceOnUse" viewBox="0 -56 56 56" width="56" x="-1596" y="-912"><g><path d="m0-56h56v56h-56z" fill="none"/><path d="m0-56h56v56h-56z" fill="#25313b"/></g></pattern><pattern id="Unnamed_Pattern_15" height="56" overflow="visible" patternUnits="userSpaceOnUse" viewBox="0 -56 56 56" width="56" x="-1596" y="-912"><g><path d="m0-56h56v56h-56z" fill="none"/><path d="m0-56h56v56h-56z" fill="#464e58"/></g></pattern><pattern id="Unnamed_Pattern_16" height="56" overflow="visible" patternUnits="userSpaceOnUse" viewBox="0 -56 56 56" width="56" x="-1596" y="-912"><g><path d="m0-56h56v56h-56z" fill="none"/><path d="m0-56h56v56h-56z" fill="#7ccedc"/></g></pattern><pattern id="Unnamed_Pattern_5" height="56" overflow="visible" patternUnits="userSpaceOnUse" viewBox="0 -56 56 56" width="56" x="-1596" y="-912"><g><path d="m0-56h56v56h-56z" fill="none"/><path d="m0-56h56v56h-56z" fill="#50c6cc"/></g></pattern><pattern id="Unnamed_Pattern_6" height="56" overflow="visible" patternUnits="userSpaceOnUse" viewBox="0 -56 56 56" width="56" x="-1596" y="-912"><g><path d="m0-56h56v56h-56z" fill="none"/><path d="m0-56h56v56h-56z" fill="#f37c5a"/></g></pattern><pattern id="Unnamed_Pattern_8" height="56" overflow="visible" patternUnits="userSpaceOnUse" viewBox="0 -56 56 56" width="56" x="-1596" y="-912"><g><path d="m0-56h56v56h-56z" fill="none"/><path d="m0-56h56v56h-56z" fill="#f7bb52"/></g></pattern><pattern id="Unnamed_Pattern_9" height="56" overflow="visible" patternUnits="userSpaceOnUse" viewBox="0 -56 56 56" width="56" x="-1596" y="-912"><g><path d="m0-56h56v56h-56z" fill="none"/><path d="m0-56h56v56h-56z" fill="#fdda7f"/></g></pattern><pattern id="SVGID_1_" patternTransform="translate(-45.969 -31.972)" xlink:href="#Unnamed_Pattern_13"/><pattern id="SVGID_2_" patternTransform="translate(.044 22.038)" xlink:href="#Unnamed_Pattern_12"/><pattern id="SVGID_3_" patternTransform="translate(-45.969 -31.972)" xlink:href="#Unnamed_Pattern_15"/><pattern id="SVGID_4_" patternTransform="translate(-45.969 -31.972)" xlink:href="#Unnamed_Pattern_8"/><pattern id="SVGID_5_" patternTransform="translate(-45.969 -31.972)" xlink:href="#Unnamed_Pattern_11"/><pattern id="SVGID_6_" patternTransform="translate(-45.969 -31.972)" xlink:href="#Unnamed_Pattern_13"/><pattern id="SVGID_7_" patternTransform="translate(-45.969 -31.972)" xlink:href="#Unnamed_Pattern_13"/><pattern id="SVGID_8_" patternTransform="translate(-45.969 -31.972)" xlink:href="#Unnamed_Pattern_6"/><pattern id="SVGID_9_" patternTransform="translate(-45.969 -31.972)" xlink:href="#Unnamed_Pattern_12"/><pattern id="SVGID_10_" patternTransform="translate(-45.969 -31.972)" xlink:href="#Unnamed_Pattern_9"/><pattern id="SVGID_11_" patternTransform="translate(-45.969 -31.972)" xlink:href="#Unnamed_Pattern_15"/><pattern id="SVGID_12_" patternTransform="translate(-45.969 -31.972)" xlink:href="#Unnamed_Pattern_15"/><pattern id="SVGID_13_" patternTransform="translate(-45.969 -31.972)" xlink:href="#Unnamed_Pattern_11"/><pattern id="SVGID_14_" patternTransform="translate(-45.969 -31.972)" xlink:href="#Unnamed_Pattern_6"/><pattern id="SVGID_15_" patternTransform="translate(-45.969 -31.972)" xlink:href="#Unnamed_Pattern_12"/><pattern id="SVGID_16_" patternTransform="translate(-45.969 -31.972)" xlink:href="#Unnamed_Pattern_15"/><pattern id="SVGID_17_" patternTransform="translate(-45.969 -31.972)" xlink:href="#Unnamed_Pattern_14"/><pattern id="SVGID_18_" patternTransform="translate(-45.969 -31.972)" xlink:href="#Unnamed_Pattern_14"/><pattern id="SVGID_19_" patternTransform="translate(-45.969 -31.972)" xlink:href="#Unnamed_Pattern_16"/><pattern id="SVGID_20_" patternTransform="translate(-45.969 -31.972)" xlink:href="#Unnamed_Pattern_14"/><pattern id="SVGID_21_" patternTransform="translate(-45.969 -31.972)" xlink:href="#Unnamed_Pattern_5"/><pattern id="SVGID_22_" patternTransform="translate(-45.969 -31.972)" xlink:href="#Unnamed_Pattern_15"/><pattern id="SVGID_23_" patternTransform="translate(-45.969 -31.972)" xlink:href="#Unnamed_Pattern_16"/><pattern id="SVGID_24_" patternTransform="translate(-45.969 -31.972)" xlink:href="#Unnamed_Pattern_5"/><g><path d="m124.6 64c0 13.1-4.2 25.6-11.4 35.7-12 16.8-30.9 25.9-50.2 25.9-35 0-61.6-28.5-61.6-61.6 0-34 27.6-61.6 61.6-61.6 34 0 61.6 27.6 61.6 61.6z" fill="url(#SVGID_1_)"/><path d="m31.6 46.7v-5.2l-5-1.1c-.2-.5-.3-.9-.6-1.4l2.8-4.3-3.7-3.7-4.3 2.7c-.4-.2-.9-.4-1.4-.6l-1.1-5h-5.2l-1.1 5c-.5.2-.9.3-1.4.6l-4.3-2.7-3.7 3.7 2.9 4.3c-.2.4-.4.9-.6 1.4l-5 1.1v5.2l5 1.1c.2.5.3.9.6 1.4l-2.7 4.3 3.7 3.5 4.3-2.7c.4.2.9.4 1.4.6l1.1 5h5.2l1.1-5c.5-.2.9-.3 1.4-.6l4.3 2.7 3.7-3.7-3-4.2c.2-.4.4-.9.6-1.4zm-15.8 5.3c-4.4 0-7.9-3.5-7.9-7.9s3.5-7.9 7.9-7.9 7.9 3.5 7.9 7.9c0 4.3-3.5 7.9-7.9 7.9z" fill="url(#SVGID_2_)"/><path d="m76 63.1-3.4-1.3s-1.6 4.3-1.5 4.3c0 .1.5 1.5.6 2.3.1.7-.3.5 1.3 1.3s2.5.7 2.7.7c.2-.1 1.4-2.2 1.4-2.3s-1.1-5-1.1-5z" fill="url(#SVGID_3_)"/><path d="m73.8 62.8.1 4.1.7.8-.7 14.7v21.9h-20.8l-3.1-8s.2-15.8.2-15.9-.4-10.4-.4-10.4l1.2-3-.1-5.6 6.3.7 10.3 1.1 4.9-.7z" fill="url(#SVGID_4_)"/><path d="m76.4 106.9-.4.8c-4.9 10.3-8.1 16.8-8.5 17.8-1.3.1-3.2.2-4.6.2-2.4-11.5-2.2-18-2.6-32.8.4-.7.6-1.9.5-2.6-.8-1.2 0-1.5.5-5.7.1-2.9 2.8-3.5 3.7-4.5l2.8-.3 5 2.4c4 5.9 3 1.1 3.6 24.7z" fill="url(#SVGID_5_)"/><path d="m67.7 125.4c-.7.2-6.3.4-11-.1-4-9.9-6.8-23.2-10.1-38.1 1.4-2.9 1.1-2.2 1.5-3.2l1.4-2.9c.4-.2.3-.1.7-.3.3 0 6.3-1.8 6.6-1.9.6-.2 1-.3 1-.3 3.5 2.6 3.8 6.3 3 6.5 0 0-2.2.3-1.9 1.6 1.2 2.4 1.4 3.7 1.9 4.9.1.1 1.9 4.4 2.4 6.5 1.2 5.2.3 3.2 2 8.9 1.4 4.2 0 6.5 1.4 13.5.6 3.1.9 1.7 1.1 4.9z" fill="url(#SVGID_6_)"/><path d="m73.8 66.8s1.1.9-1.1 4.2c0 0-3.6 5.1-7.2 8.5 0 0-.2.3-.5.4s1.7-.1 4.6 5.9c0 0 2.1 3.6 4 5.5l1.8.5.9-10.3 1.7-8.3-.8-2.2s-2.1-3.7-3.4-4.2z" fill="url(#SVGID_7_)"/><path d="m108.2 105.8c-9.9 10.8-23.4 17.6-37.3 19.3l2.6-9.3s1.3-2.9 2.5-5.7c.4-1 .8-1.9 1.1-2.7 0-.1.1-.3.1-.4.4-1 .7-1.8.7-2s.1-1.2.1-2.7c.2-4.8.4-14.2.4-14.2l-.2-2.4-.7-10.1-.3-4.6 16.7 9.1 8 4.3c1.9 1 3.3 2.9 3.8 5 1.1 5.1 1.9 10.7 2.5 16.4z" fill="url(#SVGID_8_)"/><path d="m88.9 94.3c-.8 4.2-7.5 21.7-11.1 29.5-4.2 1-8.8 1.7-12.2 1.8 4.1-20.3 6.7-23.4 11.7-54.5l11.3 13.4-4.8 3.1z" fill="url(#SVGID_9_)"/><path d="m79.9 47.5c0 .3-.1.7-.1 1v.4c-.9 8.2-4.8 13.3-5.9 14.6 0 .1-.1.1-.1.1-.1.2-.3.3-.4.5-2.4 3-5.2 4.3-7.3 4.9-2.4.7-4.9.4-7.1-.8-2.2-1.1-4.3-2.8-5.7-4-.9-.8-1.5-1.4-1.8-1.6-.1-.1-.1-.1-.2-.2-5-4.6-5-11-5-11l-.7-2.4-1.4-3.6-.2-1.3-.1-1.2.7-7.6s.5-3.7.5-4.1 3-5.6 3.1-5.7c0-.1 1.8-2.5 1.8-2.5s4-3.8 4.7-3.9c.7-.2 8.3 2.2 9.4 2.5s11.9 6.8 11.9 6.8l4.5 10.9c.2 2.4-.4 6.8-.6 8.2z" fill="url(#SVGID_10_)"/><path d="m83 32.4s-1.5-9.6-7.1-14.2c0 0-9.1-9.3-21.2-3.9 0 0-9.9 4.6-11.2 13.6 0 0-3 8-.4 14.4l.2 2.5.5 1.2 1.7-.2s.8-7.3 3.4-14.6c0 0 2.2-6.5 6.8-7.7.5-.1.9 0 1.3.2 2.5 1.6 12.4 8.3 21.2 13.1 0 0 .9 2.1 2.4 3.2 0 0-1.3 8-.7 10.4l3-.8v-7.1l.4-2.7.4-3.3z" fill="url(#SVGID_11_)"/><path d="m91.2 76.8c-4.3-5.2-6.8-11.6-6.8-11.6-2.6-7.3-1.9-16.5-1.9-16.5l-2.7.2c-.9 8.2-4.8 13.3-5.9 14.6v.1l.7 4.4c.1.9.2 1.8.2 2.8-.4 9.3 1.8 11.7 1.8 11.7 7.7 11.9 1 20.7 1 20.7-.7 1.3-3.4 3-3.4 3 1.5-.2 3.1-1.2 3.1-1.2-.6 1.1-3.3 3.4-3.3 3.4 2.3-.4 4-1.9 4-1.9-2 2.4-4.9 3.8-4.9 3.8 3.6.3 6.6-1.6 6.6-1.6.1 1.4-1.5 2.5-1.5 2.5 3.3-1 3.8-3.2 3.8-3.2 3.2-.6 8.9-3.5 8.9-3.5 1 1.4.6 3.2.6 3.2 3-2.7 4-5.5 4-5.5.4.3-.1 1.9-.1 2 3.6-5.9 3.5-12.1 3.5-12.1 0-7.4-7.7-15.3-7.7-15.3z" fill="url(#SVGID_12_)"/><path d="m51 67s-.5 1.8 3.8 7.9c0 0 1.7 2.6 3 3.7 0 0-1.9-.2-2.7 3.2 0 0-.7 6.2-3 8.7l-1 .1-4-8.6.8-6 .4-3.6.7-3.9.5-1.4z" fill="url(#SVGID_13_)"/><path d="m55 125.1c-13.8-1.8-27.3-8.4-37.3-19.3.6-5.7 1.4-11.3 2.5-16.3.5-2.1 1.8-4 3.8-5l12.5-6.8 12.2-6.7-.9 12.3-.1 1.4-.2 3.5v.4c0 .6 0 1.8.1 3.3.1 4.8.3 12.6.4 13.2 0 .1 0 .2.1.3.2.6.8 2.1 1.5 3.8.1.1.1.3.2.4.1.2.1.3.2.5 1.2 2.8 2.5 5.8 2.5 5.8z" fill="url(#SVGID_14_)"/><path d="m60.3 125.6c-4.2-.2-8.4-.8-12.2-1.7-3.6-7.8-10.3-25.3-11.2-29.5l5.3-6.7-4.8-3.1 11.3-13.6c7.3 42.4 6.4 28.4 11.6 54.6z" fill="url(#SVGID_15_)"/><path d="m51.7 109.6c-9.8 2.9-13.1-2.2-13.1-2.2.2.9 1.3 2.3 1.4 2.3-7.9-6.1-10.2-13.8-10.2-13.8-1.1 2.8-.2 4.9-.1 5-.9-1.1-1.4-2.9-1.4-2.9-1.4-8.2 5.2-15.2 5.2-15.2 3.8-4.3 5.4-13.3 5.4-13.3 2.8-8.7 2.7-19.8 2.7-19.8s.2-1.1.2-1.4 0-1.3 0-1.3l2.3-3 .2 1.4 1.4 3.6.6 2.4s-.1 6.2 4.7 10.8l.1 4.6v.9c-.2.3-.3.5-.3.5-.6 1.7-.3 6.4-.3 6.4.5 4.1-1.8 10.8-1.8 10.8-2.7 7.6-3 11.7-3 11.7-.9 8.3 6.7 11.2 6.7 11.2-1.2.9-3.6.8-3.6.8 1.3.8 2.7.5 2.9.5z" fill="url(#SVGID_16_)"/><ellipse cx="43.1" cy="47" fill="url(#SVGID_17_)" rx="3.2" ry="6.3"/><ellipse cx="82.6" cy="46.5" fill="url(#SVGID_18_)" rx="3.1" ry="6.1"/><path d="m83.8 49.8s-1.9 2.2-2.3-.6c0 0-.8-3.9.8-7.4 0 0 1.4-6.9.5-10.4 0 0 0-.2-.1-.5-5.6-22.3-24.5-17.8-25.2-17.6-4.8 1.5-11.3 5.2-13.8 14.2v.1c0 .1-.1.2-.1.3-.7 2.8-1.7 7.9-.7 12.1.1.3.2.7.3 1 .4 1.1 1.5 4.4.7 8 0 0-.3 3.7-1.8 2.6 0 0-2.1-1.6-2.1-4.9 0 0-.3-2.7 1-4.3.4-.5.6-1.1.5-1.7-.2-2.3-.5-7.8 1-12.4 0-.2 3.7-16.6 20.8-16.6h.1c.5 0 1.6 0 3 .3 5.5.9 9.4 4 12 6.9 1.2 1.3 2.6 3.1 3.7 5.4v.1c.1.2.2.4.3.7.6 1.3 1 2.7 1.2 4.3.1.4.1.9.2 1.3.3 1.5.9 5.6 0 9.5 0 0-.2.7.7 1.6.3.4.6.8.8 1.2.7 1.2 1.2 3.8-1.5 6.8z" fill="url(#SVGID_19_)"/><path d="m72 67.5-.7-.7c8-7.2 11.4-15.5 11.4-15.5l.9.4s-3.5 8.5-11.6 15.8z" fill="url(#SVGID_20_)"/><path d="m84 47.2c0-1 0-3.8 1.4-4.6.3-.2.7-.2 1 .1.5.4 1 1.4.3 3.9-.2.6-.5 1.1-.9 1.5-.1.1-.2.1-.2.2-.3.2-.5.4-.6.7-.2.8-.8 2.3-1.5 3.4-.2-.4-.5-.7-1.1-.5 0 0 1.2-2 1.6-3.7 0-.4 0-.7 0-1z" fill="url(#SVGID_21_)"/><path d="m72.3 67.2s-.6-.8-1.7-1.4c0 0-1-.7-2.3.4 0 0-2.4 2-2.5 2.2 0 0-2 2-.6 4 0 0 1.2 1.8 3.4 1 .2-.1.5-.2.7-.3.7-.4 2.4-1.5 3.4-3.2 0 0 .7-1.1-.4-2.7z" fill="url(#SVGID_22_)"/><path d="m107.3 54.8v10.7c0 .9.7 1.6 1.6 1.6h10.9l6.7 6.1-1.7-6.1h1.6c.9 0 1.6-.7 1.6-1.6v-10.7c0-.9-.7-1.6-1.6-1.6h-17.5c-.9 0-1.6.7-1.6 1.6z" fill="url(#SVGID_23_)"/><path d="m124 42.9v15.6c0 1.3-1 2.3-2.3 2.3h-15.9l-9.8 8.9 2.6-8.9h-2.3c-1.3 0-2.3-1-2.3-2.3v-15.6c0-1.3 1-2.3 2.3-2.3h25.5c1.2 0 2.2 1.1 2.2 2.3z" fill="url(#SVGID_24_)"/><g fill="#fff"><circle cx="100.7" cy="50.8" r="2"/><circle cx="108.9" cy="50.8" r="2"/><circle cx="117.1" cy="50.8" r="2"/></g></g></svg>