<svg id="Virtual_Reality" viewBox="0 0 64 64" xmlns="http://www.w3.org/2000/svg" data-name="Virtual Reality"><g fill="#07a9f0"><path d="m63 37c0 3.1-3.03 5.92-8 8.05v-16.1c4.97 2.13 8 4.95 8 8.05z"/><path d="m63 37c0 3.1-3.03 5.92-8 8.05v-16.1c4.97 2.13 8 4.95 8 8.05z"/><path d="m63 37v14c0 6.63-13.88 12-31 12s-31-5.37-31-12v-14c0 3.1 3.03 5.92 8 8.05 1.62.69 3.45 1.31 5.45 1.84 4.99 1.33 11.03 2.11 17.55 2.11s12.56-.78 17.55-2.11c2-.53 3.83-1.15 5.45-1.84 4.97-2.13 8-4.95 8-8.05z"/></g><path d="m35 61c10.38 0 19.57-1.97 25.19-5-4.89 4.13-15.68 7-28.19 7-17.12 0-31-5.37-31-12v-14c0 1.85 1.08 3.59 3 5.15v6.85c0 6.63 13.88 12 31 12z" fill="#0691ce"/><path d="m9 28.95v16.1c-4.97-2.13-8-4.95-8-8.05s3.03-5.92 8-8.05z" fill="#07a9f0"/><path d="m9 42.1v2.95c-4.97-2.13-8-4.95-8-8.05 0-1.91 1.15-3.71 3.19-5.31-.77 1.05-1.19 2.16-1.19 3.31 0 2.66 2.23 5.11 6 7.1z" fill="#0691ce"/><path d="m55 42.1v2.95c4.97-2.13 8-4.95 8-8.05 0-1.91-1.15-3.71-3.19-5.31.77 1.05 1.19 2.16 1.19 3.31 0 2.66-2.23 5.11-6 7.1z" fill="#0691ce"/><path d="m48 19v9l-2.15 1.07v.01l-1.85.92-9 1-3-2-3 2-9-1-1.85-.92-2.15-1.08v-9z" fill="#ffc14f"/><path d="m23.69 29.08 7.02.78-1.71 1.14-9-1-1.85-.92-2.15-1.08v-9h3v5.59c0 1.48.83 2.83 2.15 3.49l1.23.61c.41.21.85.34 1.31.39z" fill="#ffb52d"/><path d="m45.85 29.08c-.7 4.69-3.72 8.61-7.85 10.57-1.82.87-3.85 1.35-6 1.35s-4.18-.48-6-1.35c-4.13-1.96-7.15-5.88-7.85-10.57l1.85.92 9 1 3-2 3 2 9-1z" fill="#d5f1fe"/><path d="m42.83 35.86c-1.3 1.6-2.95 2.9-4.83 3.79-1.82.87-3.85 1.35-6 1.35s-4.18-.48-6-1.35c-4.13-1.96-7.15-5.88-7.85-10.57l1.85.92.96.11c1.31 3.32 3.84 6.02 7.04 7.54 1.82.87 3.85 1.35 6 1.35s4.18-.48 6-1.35c1.01-.48 1.96-1.08 2.83-1.79z" fill="#b4e7fd"/><path d="m39.07 19h-20.9c3.62 0 6.97-1.9 8.83-5 1.6 1.6 3.48 2.85 5.54 3.7 2.05.85 4.26 1.3 6.53 1.3z" fill="#d5f1fe"/><path d="m46.1 18.59c-.03.14-.07.28-.1.41h-6.93c-2.27 0-4.48-.45-6.53-1.3-2.06-.85-3.94-2.1-5.54-3.7-1.86 3.1-5.21 5-8.83 5h-1.17c-2-5 1-9 1-9-5-4-3-7-3-7 9 1 12-2 17-2h.08c9.24 0 16.14 8.6 14.02 17.59z" fill="#865cb2"/><path d="m21 10s-2.94 3.92-1.06 8.84c-.58.11-1.17.16-1.77.16h-1.17c-2-5 1-9 1-9-5-4-3-7-3-7 1.05.11 2.01.17 2.9.19-.34.72-1.16 3.4 3.1 6.81z" fill="#754ca0"/><path d="m20.05 3.16c-.67.04-1.38.05-2.15.03.06-.12.1-.19.1-.19.72.08 1.41.13 2.05.16z" fill="#754ca0"/><path d="m38 39.65v4.35l-6 2-6-2v-4.35c1.82.87 3.85 1.35 6 1.35s4.18-.48 6-1.35z" fill="#d5f1fe"/><path d="m38 42.67v1.33l-6 2-6-2v-4.35c.64.31 1.31.57 2 .77v.13c0 .86.56 1.64 1.38 1.91l3.98 1.33c.42.14.86.14 1.28 0z" fill="#b4e7fd"/><path d="m49.55 46.89c-4.99 1.33-11.03 2.11-17.55 2.11s-12.56-.78-17.55-2.11l11.55-2.89 6 2 6-2z" fill="#ffc14f"/><path d="m26 44 3.43 1.14-10.76 2.69c-1.48-.27-2.89-.58-4.22-.94z" fill="#ffb52d"/><circle cx="43" cy="23" fill="#865cb2" r="1"/></svg>