<svg id="Layer_1" enable-background="new 0 0 512 512" viewBox="0 0 512 512" xmlns="http://www.w3.org/2000/svg"><g id="XMLID_1_"><g id="XMLID_3545_"><path id="XMLID_3441_" d="m507 287h-502v-240.6c0-22.9 18.5-41.4 41.4-41.4h419.3c22.8 0 41.3 18.5 41.3 41.4z" fill="#b23998"/><path id="XMLID_3434_" d="m326.4 287h-128.9l121-282h129z" fill="#c075ac"/><path id="XMLID_3433_" d="m271 287h-266v-240.6c0-22.9 18.5-41.4 41.4-41.4h224.6z" fill="#f3e630"/><path id="XMLID_3432_" d="m147.4 287h-75.9l121-282h76z" fill="#fffa5a"/><path id="XMLID_1529_" d="m428 18.5c-13.5 0-24.5 11-24.5 24.5v31h49v-31c0-13.5-11-24.5-24.5-24.5z" fill="#323d2c"/><path id="XMLID_1596_" d="m465.6 384h-419.2c-22.9 0-41.4-18.5-41.4-41.4v-55.6h502v55.6c0 22.9-18.5 41.4-41.4 41.4z" fill="#c4c1ab"/><circle id="XMLID_1593_" cx="256" cy="335.5" fill="#747e6c" r="24"/><path id="XMLID_1592_" d="m192 5h157.5v219h-157.5z" fill="#bebf31"/><path id="XMLID_2877_" d="m192 183.2 76.5-178.2h-76l-.5 1.2z" fill="#d3d04c"/><path id="XMLID_2879_" d="m349 224v-219h-30.5l-94 219z" fill="#d3d04c"/><path id="XMLID_1591_" d="m192 224h315v63h-315z" fill="#ebeadf"/><path id="XMLID_2710_" d="m358 287h-166v-63h229c0 34.8-28.2 63-63 63z" fill="#fffcfa"/><g id="XMLID_1590_"><path id="XMLID_2231_" d="m235 250h165v10h-165z" fill="#747e6c"/></g><g id="XMLID_1589_"><path id="XMLID_2230_" d="m433 250h30v10h-30z" fill="#747e6c"/></g><g id="XMLID_1338_"><path id="XMLID_1341_" d="m21 232h28v55h98v-55h28c0-30.9-25.1-56-56-56h-42c-30.9 0-56 25.1-56 56z" fill="#b23998"/><path id="XMLID_1340_" d="m147 232h28v55h-28z" fill="#f7c8a9"/><path id="XMLID_1339_" d="m21 232h28v55h-28z" fill="#f7c8a9"/><path id="XMLID_2905_" d="m21 232h28v18h-28z" fill="#ef937e"/><path id="XMLID_2909_" d="m147 232h28v18h-28z" fill="#ef937e"/><path id="XMLID_2938_" d="m145.1 215h27.2c-7.2-22.6-28.4-39-53.4-39h-41.4l18.3 18.4c13 13.2 30.8 20.6 49.3 20.6z" fill="#751764"/></g><g id="XMLID_1336_"><path id="XMLID_1337_" d="m193.8 224h154c0-30.9-25.1-56-56-56h-42c-31 0-56 25.1-56 56z" fill="#db3328"/><path id="XMLID_2907_" d="m317.9 207h27.2c-7.2-22.6-28.4-39-53.4-39h-41.5l18.3 18.4c13.1 13.2 30.9 20.6 49.4 20.6z" fill="#b5100b"/></g><g id="XMLID_1332_"><path id="XMLID_1335_" d="m351.3 224h154c0-30.9-25.1-56-56-56h-42c-31 0-56 25.1-56 56z" fill="#bebf31"/><path id="XMLID_2963_" d="m475.4 207h27.2c-7.2-22.6-28.4-39-53.4-39h-41.5l18.3 18.4c13.1 13.2 30.9 20.6 49.4 20.6z" fill="#a38c31"/></g><g id="XMLID_1324_"><path id="XMLID_1329_" d="m98 123h46.5c6.9 0 12.5-5.6 12.5-12.5 0-6.9-5.6-12.5-12.5-12.5h-46.5z" fill="#ef937e"/><path id="XMLID_1328_" d="m98 98h-46.5c-6.9 0-12.5 5.6-12.5 12.5 0 6.9 5.6 12.5 12.5 12.5h46.5z" fill="#ef937e"/><path id="XMLID_1325_" d="m137 84h-78v39c0 21.5 17.5 39 39 39 21.5 0 39-17.5 39-39z" fill="#f7c8a9"/><g fill="#485143"><path id="XMLID_951_" d="m84.1 53h27.8v31h-27.8z"/><path id="XMLID_1331_" d="m78.4 53h19.6v31l-13.3 8c-6.5 3.9-14 6-21.6 6h-11.6v-18.1c0-14.9 12-26.9 26.9-26.9z"/><path id="XMLID_1330_" d="m117.6 53h-19.6v31l13.3 8c6.5 3.9 14 6 21.6 6h11.6v-18.1c0-14.9-12-26.9-26.9-26.9z"/></g><g id="XMLID_1327_"><path id="XMLID_2233_" d="m81 106h10v10h-10z" fill="#485143"/></g><g id="XMLID_1326_"><path id="XMLID_2232_" d="m106 106h10v10h-10z" fill="#485143"/></g><path id="XMLID_2990_" d="m110.4 70.8h-33.3c-3.1 0-5.6-2.5-5.6-5.6 0-3.1 2.5-5.6 5.6-5.6h33.3c3.1 0 5.6 2.5 5.6 5.6 0 3.1-2.5 5.6-5.6 5.6z" fill="#747e6c"/><path id="XMLID_3046_" d="m132.9 98h11.1v-14h-46l13.3 8c6.5 3.9 14 6 21.6 6z" fill="#323d2c"/></g><g id="XMLID_1313_"><path id="XMLID_1314_" d="m212 88h118v57.5h-118z" fill="#993e29"/><path id="XMLID_2077_" d="m212 121.5h59.5v24h-59.5z" fill="#b1614a"/><path id="XMLID_1319_" d="m310 113h7.5c6.9 0 12.5-5.6 12.5-12.5 0-6.9-5.6-12.5-12.5-12.5h-7.5z" fill="#ef937e"/><path id="XMLID_1318_" d="m232 88h-7.5c-6.9 0-12.5 5.6-12.5 12.5 0 6.9 5.6 12.5 12.5 12.5h7.5z" fill="#ef937e"/><path id="XMLID_1315_" d="m310 74h-78v39c0 21.5 17.5 39 39 39 21.5 0 39-17.5 39-39z" fill="#f7c8a9"/><path id="XMLID_943_" d="m259 43h24v31h-24z" fill="#b1614a"/><g id="XMLID_1322_"><path id="XMLID_1323_" d="m285 43h-14v31l9.8 5.9c8.8 5.3 18.9 8.1 29.2 8.1h20c0-24.9-20.1-45-45-45z" fill="#b1614a"/></g><g id="XMLID_1320_"><path id="XMLID_1321_" d="m257 43h14v31l-9.8 5.9c-8.8 5.3-18.9 8.1-29.2 8.1h-20c0-24.9 20.1-45 45-45z" fill="#b1614a"/></g><g id="XMLID_1317_"><path id="XMLID_2235_" d="m254 96h10v10h-10z" fill="#485143"/></g><g id="XMLID_1316_"><path id="XMLID_2234_" d="m279 96h10v10h-10z" fill="#485143"/></g><path id="XMLID_3017_" d="m283.4 65.3h-33.3c-3.1 0-5.6-2.5-5.6-5.6 0-3.1 2.5-5.6 5.6-5.6h33.3c3.1 0 5.6 2.5 5.6 5.6 0 3.1-2.5 5.6-5.6 5.6z" fill="#d37762"/><path id="XMLID_942_" d="m310 88h20c0-5-.8-10-2.2-14h-56.8l9.8 5.9c8.8 5.3 18.9 8.1 29.2 8.1z" fill="#993e29"/></g><g id="XMLID_1302_"><path id="XMLID_1307_" d="m428.3 113h46.3c6.9 0 12.5-5.6 12.5-12.5 0-6.9-5.6-12.5-12.5-12.5h-46.3z" fill="#e67368"/><path id="XMLID_1306_" d="m428 88h-46.5c-6.9 0-12.5 5.6-12.5 12.5 0 6.9 5.6 12.5 12.5 12.5h46.5z" fill="#e67368"/><path id="XMLID_1303_" d="m467 74h-78v39c0 21.5 17.5 39 39 39 21.5 0 39-17.5 39-39z" fill="#ef937e"/><g id="XMLID_1311_"><path id="XMLID_1312_" d="m452.5 43v31c0 7.7 6.3 14 14 14h10.5v-20.5c0-13.5-11-24.5-24.5-24.5z" fill="#485143"/></g><g id="XMLID_923_"><path id="XMLID_937_" d="m477 74h-24.5c0 7.7 6.3 14 14 14h10.5z" fill="#323d2c"/></g><g id="XMLID_1309_"><path id="XMLID_1310_" d="m403.5 43h49v31l-37.7 11c-6.7 2-13.6 3-20.6 3h-15.2v-20.5c0-13.5 11-24.5 24.5-24.5z" fill="#485143"/></g><g id="XMLID_1305_"><path id="XMLID_2237_" d="m411 96h10v10h-10z" fill="#485143"/></g><g id="XMLID_1304_"><path id="XMLID_2236_" d="m436 96h10v10h-10z" fill="#485143"/></g><path id="XMLID_913_" d="m440.4 65.3h-33.3c-3.1 0-5.6-2.5-5.6-5.6 0-3.1 2.5-5.6 5.6-5.6h33.3c3.1 0 5.6 2.5 5.6 5.6 0 3.1-2.5 5.6-5.6 5.6z" fill="#747e6c"/></g><path id="XMLID_2641_" d="m344 467h-176c-22.1 0-40 17.9-40 40h256c0-22.1-17.9-40-40-40z" fill="#747e6c"/><path id="XMLID_2637_" d="m310 467h-142c-22.1 0-40 17.9-40 40h222c0-22.1-17.9-40-40-40z" fill="#c4c1ab"/><path id="XMLID_1595_" d="m320 467h-128l13-83h102z" fill="#485143"/><path id="XMLID_1594_" d="m286.6 467h-94.6l9.6-61.3h43c18.6 0 34.5 13.6 37.4 32z" fill="#747e6c"/><path id="XMLID_692_" d="m404.5 36h16.7c8.7 0 15.8-7.1 15.8-15.8-3-1.1-5.8-1.7-9-1.7-11.1 0-20.5 7.4-23.5 17.5z" fill="#485143"/><g id="XMLID_1301_"><path id="XMLID_2238_" d="m423 29h10v14h-10z" fill="#bebf31"/></g></g></g></svg>