<svg id="Layer_1" enable-background="new 0 0 512 512" viewBox="0 0 512 512" xmlns="http://www.w3.org/2000/svg" xmlns:xlink="http://www.w3.org/1999/xlink"><linearGradient id="SVGID_1_" gradientUnits="userSpaceOnUse" x1="116.592" x2="395.408" y1="467.431" y2="-15.493"><stop offset="0" stop-color="#57ffd9"/><stop offset="1" stop-color="#2a6eff"/></linearGradient><path d="m477.21 36.955h-442.42c-18.632 0-33.79 15.157-33.79 33.789v310.45c0 18.631 15.158 33.79 33.79 33.79h114.206l-24.479 42.006c-2.194 3.764-2.223 8.242-.076 11.978 2.153 3.749 6.158 6.078 10.45 6.078h242.219c4.291 0 8.295-2.328 10.449-6.076 2.146-3.736 2.119-8.213-.074-11.978l-24.479-42.008h114.204c18.632 0 33.79-15.158 33.79-33.79v-310.45c0-18.632-15.158-33.789-33.79-33.789zm-442.42 16h442.42c9.81 0 17.79 7.98 17.79 17.789v285.058h-478v-285.058c0-9.809 7.98-17.789 17.79-17.789zm335.373 406.09h-228.326l25.677-44.062h176.972zm107.047-60.062h-442.42c-9.81 0-17.79-7.98-17.79-17.79v-9.392h478v9.392c0 9.81-7.98 17.79-17.79 17.79zm-276.504-231.486 34.395 16.475v42.157c0 5.57 3.12 10.525 8.144 12.931l64.188 30.748c8.598 4.118 17.44 6.177 26.283 6.177s17.686-2.059 26.283-6.177l64.19-30.748c5.022-2.406 8.143-7.36 8.143-12.931v-42.156l12.979-6.217v42.894l-15.179 14.089c-1.631 1.514-2.558 3.638-2.558 5.863v32.925c0 4.418 3.582 8 8 8h35.472c4.418 0 8-3.582 8-8v-32.925c0-2.225-.927-4.35-2.558-5.863l-15.178-14.088v-50.56l6.029-2.888c3.257-1.561 5.279-4.675 5.279-8.127-.001-3.655-2.203-6.892-5.892-8.66l-126.785-60.73c-3.099-1.485-7.96-2.151-11.838-.294l-128.01 61.317c-.001 0-.002 0-.002.001-3.257 1.562-5.279 4.676-5.278 8.129.001 3.657 2.206 6.893 5.893 8.658zm262.339 98.031h-19.472v-21.436l9.735-9.037 9.736 9.037v21.436zm-46.714-40.445-63.245 30.295c-12.672 6.069-26.068 6.07-38.742 0l-63.243-30.295v-33.446l76.394 36.593c1.764.845 4.099 1.424 6.497 1.424 1.815 0 3.667-.332 5.336-1.132l77.004-36.885v33.446zm-82.616-120.638 108.643 52.04-108.234-5.518c-4.396-.223-8.172 3.169-8.396 7.583-.226 4.413 3.169 8.172 7.582 8.397l88.149 4.494-87.742 42.028-113.803-54.512zm-285.397 199.093h53.807c6.617 0 12-5.383 12-12v-29.002c0-6.617-5.383-12-12-12h-53.807c-6.617 0-12 5.383-12 12v29.002c0 6.616 5.383 12 12 12zm4-37.003h45.807v21.002h-45.807zm186.254 26.889 2.397-2.398c3.019-3.017 4.036-7.404 2.655-11.45-1.373-4.024-4.855-6.861-9.088-7.403l-20.633-2.645v-6.992c0-6.617-5.383-12-12-12h-53.807c-6.617 0-12 5.383-12 12v29.002c0 6.617 5.383 12 12 12h39.676l1.749 13.648c.543 4.234 3.38 7.717 7.405 9.09 4.047 1.382 8.435.362 11.448-2.655l2.397-2.398 23.403 23.403c2.351 2.35 5.438 3.524 8.524 3.524 3.088 0 6.176-1.175 8.526-3.525l10.748-10.75c4.699-4.7 4.699-12.348 0-17.049zm-50.684-22.885c-2.446 2.447-3.598 5.821-3.157 9.257l.992 7.742h-33.625v-21.002h45.807v.941l-.761-.098c-3.435-.436-6.809.712-9.256 3.16zm54.813 59.984-26.271-26.271c-1.562-1.562-3.61-2.343-5.657-2.343-2.048 0-4.095.781-5.657 2.343l-.993.994-2.716-21.189 21.189 2.716-.995.995c-3.124 3.125-3.124 8.189 0 11.313l26.271 26.271zm-186.611-225.313c0-4.418 3.582-8 8-8h122.043c4.418 0 8 3.582 8 8s-3.582 8-8 8h-122.043c-4.418 0-8-3.581-8-8zm0 109.263c0-4.418 3.582-8 8-8h122.043c4.418 0 8 3.582 8 8s-3.582 8-8 8h-122.043c-4.418 0-8-3.582-8-8zm0-36.421c0-4.418 3.582-8 8-8h122.043c4.418 0 8 3.582 8 8s-3.582 8-8 8h-122.043c-4.418 0-8-3.582-8-8zm0-36.421c0-4.418 3.582-8 8-8h122.043c4.418 0 8 3.582 8 8s-3.582 8-8 8h-122.043c-4.418 0-8-3.581-8-8z" fill="url(#SVGID_1_)"/></svg>