<svg id="Layer_1" enable-background="new 0 0 512 512" height="512" viewBox="0 0 512 512" width="512" xmlns="http://www.w3.org/2000/svg" xmlns:xlink="http://www.w3.org/1999/xlink"><linearGradient id="SVGID_1_" gradientUnits="userSpaceOnUse" x1="43.483" x2="468.518" y1="438.062" y2="13.027"><stop offset="0" stop-color="#57ffd9"/><stop offset=".1339" stop-color="#4fe4e0"/><stop offset=".4257" stop-color="#3faded"/><stop offset=".6778" stop-color="#3485f7"/><stop offset=".8776" stop-color="#2d6dfd"/><stop offset="1" stop-color="#2a64ff"/></linearGradient><path d="m477.659 36.162h-443.316c-18.661 0-33.843 15.182-33.843 33.842v311.078c0 18.66 15.182 33.842 33.843 33.842h114.89l-24.063 41.291c-2.385 4.094-2.417 8.957-.088 13.012 2.345 4.078 6.698 6.611 11.364 6.611h239.108c4.665 0 9.02-2.533 11.363-6.613 2.33-4.053 2.298-8.916-.087-13.01l-24.063-41.291h114.891c18.66 0 33.841-15.182 33.841-33.842v-311.078c.001-18.66-15.18-33.842-33.84-33.842zm-443.316 16h443.316c9.838 0 17.841 8.004 17.841 17.842v286.381h-479v-286.381c0-9.838 8.004-17.842 17.843-17.842zm336.081 407.676h-228.847l26.175-44.914h176.497zm107.235-60.914h-443.316c-9.839 0-17.843-8.004-17.843-17.842v-8.697h479v8.697c0 9.838-8.003 17.842-17.841 17.842zm-325.076-204.537 41.549 11.23-8.054 17.547c-1.396 3.041-.752 6.629 1.613 8.994l40.535 40.535c1.534 1.533 3.581 2.344 5.659 2.344 1.128 0 2.266-.238 3.335-.73l17.548-8.055 11.229 41.551c.964 3.566 4.191 5.914 7.718 5.914.686 0 1.383-.088 2.077-.275l1.87-.5c30.476-8.165 56.841-38.131 50.531-80.271 22.692-19.624 38.218-46.455 45.316-78.558.015-.066.033-.132.045-.197 4.252-19.335 5.455-40.574 3.323-63.303-.359-3.828-3.39-6.857-7.218-7.217-7.334-.689-14.635-1.037-21.699-1.037-14.4 0-28.202 1.457-41.222 4.305-.444.062-.884.158-1.313.295-21.622 4.905-41.047 13.678-57.389 26.061-7.492 5.678-14.31 12.089-20.411 19.158-42.097-6.255-72.031 20.115-80.183 50.547l-.501 1.871c-1.139 4.259 1.383 8.64 5.642 9.791zm83.022 63.056-32.664-32.664 4.879-10.629 38.415 38.414zm43.666 38.149-8.902-32.941c15.837-4.229 30.144-10.545 42.776-18.707.531 26.503-15.43 44.402-33.874 51.648zm82.203-196.793c.817 12.934.429 25.295-1.096 36.991l-35.942-35.942c7.566-.973 15.408-1.488 23.525-1.488 4.419-.001 8.943.146 13.513.439zm-56.087 4.629 51.371 51.371c-12.018 47.182-44.641 80.841-92.702 92.959l-51.539-51.539c12.094-48.018 45.526-80.797 92.87-92.791zm-89.035 43.814c-8.249 12.76-14.559 27.107-18.742 42.741l-32.815-8.87c7.235-18.41 25.101-34.361 51.557-33.871zm-14.813 122.807-47.6 47.6c-1.563 1.563-3.61 2.344-5.657 2.344-2.048 0-4.095-.781-5.657-2.344-3.124-3.123-3.124-8.189 0-11.314l47.6-47.6c3.124-3.123 8.188-3.125 11.314 0 3.124 3.122 3.124 8.189 0 11.314zm-65.109 9.5c-3.125-3.125-3.125-8.189-.001-11.314l31.647-31.648c3.127-3.125 8.192-3.123 11.313 0 3.125 3.123 3.125 8.189.001 11.313l-31.647 31.648c-1.563 1.563-3.609 2.344-5.657 2.344-2.047-.001-4.095-.783-5.656-2.343zm167.913-90.492c18.165 0 32.943-14.777 32.943-32.943 0-18.164-14.778-32.941-32.943-32.941s-32.943 14.777-32.943 32.941c-.001 18.165 14.778 32.943 32.943 32.943zm0-49.885c9.343 0 16.943 7.6 16.943 16.941 0 9.344-7.601 16.943-16.943 16.943s-16.943-7.6-16.943-16.943c-.001-9.342 7.6-16.941 16.943-16.941zm-80.656 141.711c3.125 3.123 3.125 8.189.001 11.313l-31.647 31.648c-1.563 1.563-3.609 2.344-5.657 2.344-2.047 0-4.095-.781-5.656-2.342-3.125-3.125-3.125-8.189-.001-11.314l31.647-31.648c3.126-3.126 8.191-3.122 11.313-.001z" fill="url(#SVGID_1_)"/></svg>