<svg id="Layer_1" enable-background="new 0 0 512 512" viewBox="0 0 512 512" xmlns="http://www.w3.org/2000/svg"><g id="XMLID_1_"><g id="XMLID_3435_"><circle id="XMLID_1052_" cx="332" cy="180" fill="#e36415" r="175"/><path id="XMLID_1051_" d="m507 180c0 96.6-78.4 175-175 175 38.5 0 69.7-78.4 69.7-175s-31.2-175-69.7-175c96.6 0 175 78.4 175 175z" fill="#b24e10"/><path id="XMLID_1184_" d="m138.4 416-91 91c-27 0-42.4-19.1-42.4-42.4l91-91" fill="#4893cc"/><path id="XMLID_1183_" d="m138.4 416c-26.1 0-42.4-13.5-42.4-42.4 26.1 0 42.4 13.5 42.4 42.4z" fill="#275e87"/><g id="XMLID_1185_"><path id="XMLID_1186_" d="m132.6 333.6h20v71.8h-20z" fill="#cde9fe" transform="matrix(.707 .707 -.707 .707 302.987 7.399)"/></g><g id="XMLID_521_"><path id="XMLID_522_" d="m143.1 337.9h20v42.1h-20z" fill="#9cd3fc" transform="matrix(.707 .707 -.707 .707 298.638 -3.101)"/></g><path id="XMLID_2009_" d="m507 180c0 33.8-9.6 65.3-26.1 92-42.2-12.3-68 46.8-107 46.8-39.1 0-62.1-44.1-88.7-45.4s-99.6 2.4-99.6 2.4c-18.1-27.5-28.6-60.4-28.6-95.8 0-33.8 9.6-65.3 26.1-92 80.6 0 97.6-20.9 147.9-20.9s92.1 20.9 149.8 20.9c16.6 26.7 26.2 58.2 26.2 92z" fill="#cde9fe"/><path id="XMLID_2007_" d="m502.4 220c-4.4 18.7-11.7 36.2-21.5 52-42.2-12.3-68 46.8-107 46.8-39.1 0-62.1-44.1-88.7-45.4s-99.6 2.4-99.6 2.4c-13-19.8-22-42.3-26.1-66.5 0 0 88.7 6.2 126.9-.1 38.1-6.4 40.4-41.8 87.5-41.8s54.1 67.5 128.5 52.6z" fill="#ffc96f"/><path id="XMLID_2008_" d="m505.4 156.5c-64.8 0-98.9-25.5-173.4-25.5s-116.4 25.5-173.4 25.5c3.3-24.9 11.9-48.1 24.6-68.5 80.6 0 97.6-20.9 147.9-20.9s92.1 20.9 149.8 20.9c12.6 20.4 21.2 43.6 24.5 68.5z" fill="#ffc96f"/><path id="XMLID_1193_" d="m387.5 74.1c8.9 29.4 14.2 66.1 14.2 105.9 0 56.6-10.7 106.9-27.3 138.9 38.7-.6 64.5-59.1 106.4-46.8 16.6-26.7 26.1-58.3 26.1-92s-9.6-65.3-26.1-92c-35.1-.1-64.4-7.9-93.3-14z" fill="#9cd3fc"/><path id="XMLID_1195_" d="m401.7 176.6v3.4c0 56.6-10.7 106.9-27.3 138.9 38.7-.6 64.5-59.1 106.4-46.8 9.8-15.8 17.2-33.3 21.5-52-56.9 11.4-74.3-25.6-100.6-43.5z" fill="#ffb234"/><path id="XMLID_1219_" d="m387.5 74.1c5.7 18.8 9.9 40.7 12.2 64.4 35.1 7.5 64.1 18 105.7 18-3.3-24.9-11.9-48.1-24.6-68.5-35.1 0-64.4-7.8-93.3-13.9z" fill="#ffb234"/><ellipse id="XMLID_1194_" cx="373.8" cy="245.5" fill="#e36415" rx="41.8" ry="27.9"/><circle id="XMLID_1188_" cx="220.6" cy="291.4" fill="#ffdca4" r="100"/><circle id="XMLID_1187_" cx="220.6" cy="291.4" fill="#4893cc" r="75"/><g id="XMLID_524_"><path id="XMLID_529_" d="m252.5 259.5c-8.5-8.5-19.8-13.2-31.8-13.2s-23.3 4.7-31.8 13.2l-7.1-7.1c10.4-10.4 24.2-16.1 38.9-16.1s28.5 5.7 38.9 16.1z" fill="#cde9fe"/></g></g></g></svg>