<svg id="Layer_1" enable-background="new 0 0 505.621 505.621" height="512" viewBox="0 0 505.621 505.621" width="512" xmlns="http://www.w3.org/2000/svg"><g><g><path d="m0 477.81h105l21.213-103.179-21.213-106.821h-105z" fill="#ff864a"/><path d="m105 267.81h105v210h-105z" fill="#ff5e4a"/><path d="m0 27.81v210h105l17.5-113.5-17.5-96.5z" fill="#aee52e"/><path d="m105 27.81h105v210h-105z" fill="#66d45c"/><g fill="#40beff"><path d="m270 27.81h210v30h-210z"/><path d="m270 87.81h210v30h-210z"/><path d="m270 147.81h105v30h-105z"/><path d="m270 207.81h45v30h-45z"/></g><path d="m83.787 332.204-21.213 21.213 21.213 21.214-21.213 21.213 21.213 21.213 21.213-21.213 13-21.213-13-21.213z" fill="#ebf3fe"/><path d="m126.214 332.204-21.214 21.214v42.426l21.214 21.213 21.213-21.213-21.214-21.213 21.214-21.214z" fill="#d0e4fc"/><path d="m95.417 134.098-15.227-15.227-21.213 21.213 36.44 36.439 9.583-9.583 13-29.63-13-12.796z" fill="#ebf3fe"/><path d="m129.811 99.704-24.811 24.81v42.426l46.023-46.023z" fill="#d0e4fc"/><path d="m422.574 192.81-161.603 161.603 9.029 38.397 33.397 4.03 161.603-161.603-9.5-33.427z" fill="#ff5e4a"/><path d="m260.971 354.413-21.213 63.64 63.639-21.213z" fill="#ffb048"/><path d="m496.834 203.403c11.716-11.716 11.716-30.71 0-42.426v-.001c-11.716-11.715-30.711-11.715-42.427 0-9.952 9.952-21.866 21.867-31.833 31.834l42.426 42.427c9.977-9.975 21.906-21.906 31.834-31.834z" fill="#3d4072"/></g></g></svg>