<svg id="Icons" viewBox="0 0 60 60" xmlns="http://www.w3.org/2000/svg"><path d="m59 19v-8c0-2.209-1.791-4-4-4h-26.528c-1.515 0-2.9-.856-3.578-2.211l-.789-1.578c-.678-1.355-2.063-2.211-3.578-2.211h-15.527c-2.209 0-4 1.791-4 4v20s57 0 57 0z" fill="#70b1fe"/><path d="m54 24v-11c0-1.105-.895-2-2-2h-44c-1.105 0-2 .895-2 2v11z" fill="#e8ecef"/><path d="m59 19v30c0 2.209-1.791 4-4 4h-50c-2.209 0-4-1.791-4-4v-24c0-2.209 1.791-4 4-4h26.528c1.515 0 2.9-.856 3.578-2.211l.789-1.578c.678-1.355 2.063-2.211 3.578-2.211h15.528c2.209 0 4 1.791 4 4z" fill="#93d3fe"/><path d="m46.326 40.755-6.543 6.467 1.544 9.123c.315 1.853-1.605 3.264-3.241 2.389l-8.087-4.314-8.087 4.314c-1.636.875-3.556-.535-3.241-2.389l1.544-9.123-6.543-6.467c-1.321-1.308-.589-3.594 1.24-3.861l9.042-1.328 4.044-8.299c.813-1.689 3.19-1.689 4.003 0l4.044 8.299 9.042 1.328c1.829.268 2.56 2.554 1.24 3.861z" fill="#fcc742"/><path d="m55 6h-26.528c-1.143 0-2.171-.636-2.683-1.658l-.789-1.578c-.854-1.705-2.566-2.764-4.472-2.764h-15.528c-2.757 0-5 2.243-5 5v3c0 .553.447 1 1 1s1-.447 1-1v-3c0-1.654 1.346-3 3-3h15.528c1.143 0 2.171.636 2.683 1.658l.789 1.578c.854 1.705 2.566 2.764 4.472 2.764h26.528c1.654 0 3 1.346 3 3v4.026c-.838-.635-1.87-1.026-3-1.026v-1c0-1.654-1.346-3-3-3h-44c-1.654 0-3 1.346-3 3v7c-1.13 0-2.162.391-3 1.026v-9.026c0-.553-.447-1-1-1s-1 .447-1 1v37c0 2.757 2.243 5 5 5h13.054l-.369 2.178c-.211 1.246.291 2.478 1.312 3.212.562.403 1.216.608 1.874.608.517 0 1.035-.126 1.513-.382l7.616-4.062 7.615 4.062c1.089.582 2.385.493 3.388-.227 1.021-.734 1.522-1.966 1.312-3.212l-.369-2.178h13.054c2.757 0 5-2.243 5-5v-37.999c0-2.757-2.243-5-5-5zm-48 7c0-.552.448-1 1-1h44c.552 0 1 .448 1 1v1h-13.53c-1.872 0-3.628 1.083-4.477 2.768l-.775 1.572c-.509 1.009-1.563 1.66-2.688 1.66h-24.53zm32.834 44.766c-.383.278-.86.309-1.276.087l-8.087-4.314c-.295-.158-.646-.158-.941 0l-8.088 4.314c-.414.222-.891.191-1.275-.087-.402-.289-.593-.758-.508-1.254l1.545-9.123c.054-.321-.052-.649-.283-.878l-6.543-6.466c-.351-.347-.466-.838-.31-1.313.151-.462.522-.779.991-.848l9.042-1.329c.327-.048.608-.254.754-.551l4.046-8.304c.211-.438.622-.7 1.1-.7s.889.262 1.102.705l4.044 8.299c.146.297.427.503.754.551l9.043 1.329c.468.068.839.386.99.848.156.476.041.967-.31 1.313l-6.543 6.466c-.231.229-.337.557-.283.878l1.545 9.123c.085.496-.105.965-.508 1.254zm18.166-8.766c0 1.654-1.346 3-3 3h-13.393l-.751-4.433 6.173-6.101c.888-.879 1.195-2.166.804-3.36-.388-1.18-1.385-2.023-2.601-2.201l-8.52-1.253-3.811-7.819c-.544-1.131-1.656-1.833-2.902-1.833s-2.358.702-2.9 1.828l-3.812 7.824-8.519 1.253c-1.217.178-2.214 1.021-2.602 2.201-.392 1.194-.084 2.481.804 3.36l6.173 6.101-.751 4.433h-13.392c-1.654 0-3-1.346-3-3v-24c0-1.654 1.346-3 3-3h26.53c1.872 0 3.628-1.083 4.477-2.768l.775-1.572c.509-1.009 1.563-1.66 2.688-1.66h15.53c1.654 0 3 1.346 3 3z" fill="#161616"/></svg>