<svg id="Layer_1" enable-background="new 0 0 256 256" viewBox="0 0 256 256" xmlns="http://www.w3.org/2000/svg"><g><g><g><g><g><g><g><g><path d="m205.531 177.998-19.288-5.505 15.724-21.523 12.308-31.525c1.321-3.382 5.133-5.054 8.516-3.733 3.382 1.321 5.054 5.133 3.733 8.516z" fill="#e8c197"/></g><g><path d="m220.318 168.314 19.878-44.314c1.483-3.305.248-7.197-2.869-9.043-3.658-2.167-8.388-.667-10.128 3.213l-12.853 28.653-6.762 5.54-13.369 22.57c-2.137 3.608-6.794 4.8-10.402 2.663l-18.901-11.195-13.39 22.605c-.883 1.492-1.328 3.202-1.284 4.935l.304 9.448 35.105.121.064-1.748c.019-1.221.641-2.353 1.661-3.024l15.23-10.013 15.859-17.932c.769-.661 1.414-1.492 1.857-2.479z" fill="#fedbb0"/></g><g><path d="m186.202 174.202-13.269-5.18 13.579-34.781c.305-.781 1.186-1.167 1.967-.862 6.547 2.556 9.783 9.936 7.226 16.483z" fill="#fedbb0"/></g><g><g><path d="m196.469 226.81v-18.779c0-2.53-2.051-4.58-4.58-4.58h-49.391c-2.53 0-4.58 2.051-4.58 4.58v18.779c0 2.53 2.051 4.58 4.58 4.58h49.391c2.529 0 4.58-2.05 4.58-4.58z" fill="#8dc8d8"/></g></g><g><path d="m191.862 159.707-12.857-6.237-14.093 12.932 18.901 11.195c3.608 2.137 8.265.945 10.402-2.663z" fill="#fedbb0"/></g></g><g><g><path d="m50.469 177.998 19.288-5.505-15.724-21.523-12.308-31.525c-1.321-3.382-5.133-5.054-8.516-3.733-3.382 1.321-5.054 5.133-3.733 8.516z" fill="#e8c197"/></g><g><path d="m35.682 168.314-19.878-44.314c-1.483-3.305-.248-7.197 2.869-9.043 3.658-2.167 8.388-.667 10.128 3.213l12.853 28.653 6.762 5.54 13.369 22.57c2.137 3.608 6.794 4.8 10.402 2.663l18.901-11.195 13.377 22.585c.891 1.505 1.336 3.232 1.283 4.98l-.29 9.485-35.105.121-.046-1.831c-.03-1.208-.651-2.325-1.66-2.989l-15.248-10.025-15.859-17.934c-.77-.661-1.415-1.492-1.858-2.479z" fill="#fedbb0"/></g><g><path d="m69.798 174.202 13.269-5.18-13.579-34.781c-.305-.781-1.186-1.167-1.967-.862-6.547 2.556-9.783 9.936-7.226 16.483z" fill="#fedbb0"/></g><g><g><path d="m59.531 226.81v-18.779c0-2.53 2.051-4.58 4.58-4.58h49.391c2.53 0 4.58 2.051 4.58 4.58v18.779c0 2.53-2.051 4.58-4.58 4.58h-49.39c-2.53 0-4.581-2.05-4.581-4.58z" fill="#8dc8d8"/></g></g><g><path d="m64.138 159.707 12.857-6.237 14.093 12.932-18.901 11.195c-3.608 2.137-8.265.945-10.402-2.663z" fill="#fedbb0"/></g></g></g></g></g></g><g><g><g><g><g><g><g><g><g><path d="m172.317 124.402-40.885 17.776c-2.189.952-4.675.952-6.864 0l-40.885-17.776c-3.143-1.366-5.175-4.467-5.175-7.894v-36.138h98.985v36.139c0 3.427-2.033 6.527-5.176 7.893z" fill="#bbe2a1"/></g></g></g></g></g><g><g><g><g><g><path d="m124.487 102.392-64.982-29.048c-6.793-3.037-6.793-12.68 0-15.716l64.983-29.048c2.235-.999 4.79-.999 7.025 0l64.983 29.048c6.793 3.037 6.793 12.68 0 15.716l-64.983 29.047c-2.236 1-4.79 1-7.026.001z" fill="#f47da5"/></g></g></g></g></g><g><g><g><g><g><path d="m64.365 115.518c-1.188 0-2.152-.963-2.152-2.152v-37.849c0-.983.666-1.84 1.618-2.084l63.635-16.307c1.15-.298 2.324.398 2.618 1.55.296 1.152-.399 2.324-1.55 2.618l-62.017 15.893v36.178c0 1.19-.964 2.153-2.152 2.153z" fill="#fcc171"/></g></g></g></g></g><g><g><g><g><g><path d="m68.321 118.924h-7.913c-1.54 0-2.789-1.249-2.789-2.789v-9.833c0-3.725 3.02-6.745 6.745-6.745 3.725 0 6.745 3.02 6.745 6.745v9.833c.001 1.541-1.248 2.789-2.788 2.789z" fill="#8dc8d8"/></g></g></g></g></g></g></g></g></g></g><g fill="#422618"><g><path d="m239.366 111.516c-1.717-1.017-3.674-1.555-5.659-1.555-2.865 0-5.561 1.104-7.585 2.984-.588-.379-1.216-.701-1.877-.96-1.234-.482-2.527-.726-3.844-.726-4.389 0-8.256 2.642-9.853 6.731l-10.034 25.702c-.165-1.763-.613-3.506-1.345-5.175-1.794-4.092-5.074-7.24-9.236-8.865-.643-.251-1.318-.378-2.006-.378-2.291 0-4.309 1.378-5.142 3.512l-7.169 18.363-13.409 12.304c-.289.265-.537.571-.737.909l-13.39 22.605c-1.268 2.141-1.905 4.589-1.841 7.077l.173 5.376-3.945.03c-4.701 0-8.55 3.849-8.55 8.58v18.779c0 4.731 3.849 8.58 8.58 8.58h49.391c4.731 0 8.58-3.849 8.58-8.58v-18.779c0-4.224-3.069-7.746-7.094-8.451l11.424-7.511c.296-.194.564-.427.799-.692l15.696-17.749c1.145-1.037 2.044-2.273 2.673-3.675l19.879-44.314c2.318-5.166.392-11.237-4.479-14.122zm.83 12.484-19.879 44.314c-.443.987-1.088 1.818-1.857 2.479l-15.859 17.932-15.23 10.013c-1.02.671-1.642 1.803-1.661 3.024l-.062 1.688h6.239c2.53 0 4.58 2.051 4.58 4.58v18.779c0 2.53-2.051 4.58-4.58 4.58h-49.391c-2.53 0-4.58-2.051-4.58-4.58v-18.779c0-2.53 2.051-4.58 4.58-4.58l8.045-.06-.304-9.448c-.045-1.733.4-3.444 1.284-4.935l13.39-22.605 14.093-12.932 7.507-19.228c.234-.6.808-.967 1.415-.967.184 0 .37.034.552.104 6.547 2.556 9.783 9.936 7.226 16.483l-3.844 9.845.65 4.206 9.455-12.942 12.308-31.525c1.014-2.597 3.497-4.186 6.126-4.185.795 0 1.604.145 2.389.452 1.829.714 3.151 2.159 3.777 3.868l.632-1.409c1.196-2.667 3.805-4.209 6.507-4.209 1.229 0 2.477.319 3.621.996 3.119 1.844 4.354 5.736 2.871 9.041z"/><path d="m194.215 174.933.083-.14-.109-.032z"/></g><g><path d="m61.785 174.933.026-.172-.109.032z"/><path d="m113.502 199.45h-3.921l.164-5.363c.077-2.511-.559-4.98-1.839-7.141l-13.377-22.584c-.2-.337-.448-.644-.737-.909l-13.409-12.303-7.169-18.363c-.833-2.133-2.851-3.512-5.141-3.512-.689 0-1.364.127-2.007.378-4.162 1.625-7.442 4.773-9.236 8.865-.732 1.669-1.18 3.412-1.345 5.175l-10.033-25.703c-1.596-4.089-5.463-6.731-9.852-6.731-1.317 0-2.61.244-3.844.726-.661.258-1.29.581-1.877.96-2.024-1.88-4.721-2.984-7.585-2.984-1.985 0-3.942.538-5.659 1.555-4.871 2.885-6.797 8.956-4.48 14.122l19.879 44.314c.629 1.403 1.528 2.638 2.673 3.675l15.696 17.749c.234.265.503.498.799.692l11.424 7.511c-4.025.706-7.094 4.227-7.094 8.452v18.779c0 4.731 3.849 8.58 8.58 8.58h49.391c4.731 0 8.58-3.849 8.58-8.58v-18.779c0-4.732-3.849-8.581-8.581-8.581zm4.581 27.36c0 2.53-2.051 4.58-4.58 4.58h-49.391c-2.53 0-4.58-2.051-4.58-4.58v-18.779c0-2.53 2.051-4.58 4.58-4.58h6.238l-.043-1.711c-.03-1.208-.651-2.325-1.66-2.989l-15.248-10.025-15.859-17.933c-.77-.661-1.414-1.492-1.857-2.479l-19.879-44.314c-1.483-3.305-.248-7.197 2.869-9.043 1.144-.677 2.392-.996 3.621-.996 2.702 0 5.311 1.543 6.507 4.209l.632 1.409c.626-1.709 1.948-3.154 3.777-3.868.786-.307 1.594-.452 2.389-.452 2.629 0 5.112 1.589 6.126 4.185l12.308 31.525 9.455 12.942.65-4.206-3.844-9.845c-2.556-6.547.679-13.927 7.226-16.483.181-.071.368-.104.552-.104.607 0 1.181.367 1.415.967l7.507 19.228 14.093 12.932 13.377 22.584c.891 1.505 1.336 3.232 1.283 4.98l-.29 9.485h8.045c2.53 0 4.58 2.051 4.58 4.58v18.781z"/></g><path d="m198.128 53.976-64.983-29.048c-1.629-.728-3.36-1.098-5.145-1.098s-3.516.369-5.145 1.098l-64.983 29.048c-4.603 2.058-7.462 6.468-7.462 11.51s2.859 9.452 7.462 11.51l.34.152v20.347c-2.829 1.973-4.593 5.233-4.593 8.808v9.833c0 3.743 3.045 6.789 6.789 6.789h7.913c2.898 0 5.378-1.826 6.35-4.387.681 4.187 3.442 7.805 7.417 9.534l40.885 17.776c1.596.694 3.287 1.046 5.027 1.046s3.431-.352 5.027-1.046l40.885-17.776c4.605-2.002 7.581-6.54 7.581-11.562v-32.078l16.635-7.436c4.603-2.057 7.462-6.468 7.462-11.51s-2.859-9.452-7.462-11.51zm-123.62 48.777c-.743-2.122-2.138-3.965-3.99-5.257v-14.848l3.99 1.784zm121.987-29.409-19.002 8.494v34.67c0 3.427-2.033 6.527-5.175 7.894l-40.885 17.776c-1.094.476-2.263.714-3.432.714s-2.338-.238-3.432-.714l-40.885-17.776c-3.143-1.366-5.175-4.467-5.175-7.894v-34.67l-10.983-4.909-1.007.258v22.727c2.668.899 4.592 3.417 4.592 6.388v9.833c0 1.54-1.249 2.789-2.789 2.789h-7.913c-1.54 0-2.789-1.249-2.789-2.789v-9.833c0-2.972 1.924-5.49 4.593-6.388v-24.397c0-.31.073-.605.194-.875l-2.902-1.297c-6.793-3.036-6.793-12.68 0-15.716l64.983-29.048c1.118-.5 2.315-.749 3.513-.749s2.395.25 3.513.749l64.983 29.048c6.791 3.036 6.791 12.679-.002 15.715z"/></g></g></svg>