<svg id="Layer_1" enable-background="new 0 0 128 128" height="512" viewBox="0 0 128 128" width="512" xmlns="http://www.w3.org/2000/svg"><g><path d="m128 64c0 35.2-28.5 64-64 64-35.3 0-64-28.7-64-64s28.6-64 64-64c35.3 0 64 28.7 64 64z" fill="#f37c5a"/><path d="m61 9.6h6v99.4h-6z" fill="#fdda7f"/><path d="m101.7 121.2c-1.7.7-3.3-.2-3.9-1.6l-10.1-24.4-7.4-17.8c-.6-1.5.1-3.3 1.6-3.9s3.3.1 3.9 1.6l8.3 20.1 9.1 22c.8 1.6.1 3.3-1.5 4z" fill="#fdda7f"/><path d="m47.6 77.4-7.4 17.8-10.1 24.3c-.6 1.4-2.3 2.3-3.9 1.6-1.5-.6-2.3-2.4-1.6-3.9l9.1-22 8.3-20.1c.6-1.5 2.4-2.3 3.9-1.6 1.7.6 2.4 2.4 1.7 3.9z" fill="#fdda7f"/><path d="m47.6 77.4-7.4 17.8h-6.5l8.3-20.1c.6-1.5 2.4-2.3 3.9-1.6 1.7.6 2.4 2.4 1.7 3.9z" fill="#f7bb52"/><path d="m61 15.7h6v79.5h-6z" fill="#f7bb52"/><path d="m94.2 95.2h-6.5l-7.4-17.8c-.6-1.5.1-3.3 1.6-3.9s3.3.1 3.9 1.6z" fill="#f7bb52"/><path d="m112.2 16.7h-96.4c-2.6 0-4.8 2.1-4.8 4.8v67.9c0 2.6 2.1 4.8 4.8 4.8h96.3c2.6 0 4.8-2.1 4.8-4.8v-67.9c0-2.6-2.1-4.8-4.7-4.8z" fill="#464e58"/><path d="m15.8 91c-.9 0-1.6-.7-1.6-1.6v-67.9c0-.9.7-1.6 1.6-1.6h96.3c.9 0 1.6.7 1.6 1.6v67.9c0 .9-.7 1.6-1.6 1.6z" fill="#fff"/><path d="m43.2 24.9v24l17-17c-4.3-4.3-10.3-7-17-7z" fill="#f2f2f2"/><path d="m67.3 48.9c0-6.6-2.7-12.6-7-17l-17 17z" fill="#50c6cc"/><path d="m55.1 48.9h-11.9v-11.9c6.6 0 11.9 5.3 11.9 11.9z" fill="#da664b"/><path d="m19.2 48.9c0 13.3 10.8 24 24 24v-24z" fill="#464e58"/><path d="m43.2 72.9c13.3 0 24-10.8 24-24h-24z" fill="#7ccedc"/><path d="m43.2 48.9-17-17c-4.3 4.3-7 10.4-7 17z" fill="#f37c5a"/><path d="m43.2 48.9v-24c-6.6 0-12.6 2.7-17 7z" fill="#dad9d8"/><path d="m103.9 61h4.9v25.1h-4.9z" fill="#dad9d8"/><path d="m95 65.1h4.9v20.9h-4.9z" fill="#f2f2f2"/><path d="m86.2 68.6h4.9v17.5h-4.9z" fill="#dad9d8"/><path d="m77.3 71.4h4.9v14.6h-4.9z" fill="#f2f2f2"/><path d="m68.4 73.9h4.9v12.2h-4.9z" fill="#dad9d8"/><g fill="#7ccedc"><path d="m101.5 24.9h7.3v1.4h-7.3z"/><path d="m101.5 28h7.3v1.4h-7.3z"/><path d="m101.5 31.1h7.3v1.4h-7.3z"/><path d="m101.5 34.2h7.3v1.4h-7.3z"/><path d="m101.5 37.3h7.3v1.4h-7.3z"/><path d="m101.5 40.4h7.3v1.4h-7.3z"/></g></g></svg>