<svg id="Upload_Blue_Style" viewBox="0 0 512 512" xmlns="http://www.w3.org/2000/svg" data-name="Upload Blue Style"><path d="m95.123 47.98a48.155 48.155 0 0 0 21.687-21.686 48.211 48.211 0 0 0 21.695 21.686 48.276 48.276 0 0 0 -21.695 21.7 48.22 48.22 0 0 0 -21.687-21.7zm278.157 32.171a37.319 37.319 0 0 1 11.406-11.389 37.517 37.517 0 0 1 -11.406-11.4 37.2 37.2 0 0 1 -11.39 11.391 37.3 37.3 0 0 1 11.39 11.398zm120.246 276.1-217.909-243.976-3.054-.023h-.054a7.609 7.609 0 0 0 -4.544 1.526l210.82 255.148a9.839 9.839 0 0 0 6.945 3.5 9.426 9.426 0 0 0 7.023-2.452 9.721 9.721 0 0 0 .773-13.719zm-123.515-16.304c-33.611 4.425-72.677 6.853-114.011 6.853-41.289 0-80.351-2.43-114-6.88l-21.354 124.643a8.626 8.626 0 0 0 4.765 9.375c42.726 19.468 129.935 22.046 130.81 22.062.437-.016 87.645-2.594 130.379-22.062a8.631 8.631 0 0 0 4.757-9.375zm63.1-75.353c8.473-3.812 9.775-6.514 9.788-6.54-.7-1.4-6.93-6.243-25.952-11.557zm-288.887 14.974c.125.022.217.105.34.132 29.213 3.784 66.5 6.431 111.438 6.431 46.542 0 91.67-3.134 126.472-8.676l-22.991-27.82c-19.4 4.892-58.58 7.989-103.481 7.989-106.814 0-118.985-12.7-120.376-19.3-50.055 7.309-65.3 17.072-66.525 20.351 2.315 5.8 28.039 14.8 74.629 20.906.17.019.324-.04.494-.013zm311.19-75.849a8 8 0 0 0 -8-8h-5.914v-5.919a8 8 0 0 0 -16 0v5.922h-5.922a8 8 0 0 0 0 16h5.922v5.922a8 8 0 0 0 16 0v-5.922h5.914a8 8 0 0 0 8-8.003zm-32.4-173.8h5.921v5.914a8 8 0 1 0 16 0v-5.911h5.922a8 8 0 0 0 0-16h-5.922v-5.922a8 8 0 0 0 -16 0v5.922h-5.921a8 8 0 0 0 0 16zm-186.092 163.214h11.078v11.078a8 8 0 0 0 16 0v-11.078h11.078a8 8 0 0 0 0-16h-11.078v-11.086a8 8 0 0 0 -16 0v11.086h-11.078a8 8 0 0 0 0 16zm-49.672 12.719a8 8 0 0 0 13.187-9.047c-73.171-106.649-186.25-127.961-191.031-128.821a8 8 0 0 0 -2.82 15.75c1.101.196 111.391 21.172 180.664 122.118zm159.516-47.9a7.992 7.992 0 0 1 -.008-11.3c.969-.961 20.922-20.64 46.953-23.57 7.976-14.469 26.226-30.82 66.055-42.8a8 8 0 0 1 4.609 15.328c-28.742 8.641-43.945 19.2-51.9 28.579 12.164 3.078 19.921 10.8 21.164 21.414 1.382 11.8-6.227 23.828-17.7 27.968a15.015 15.015 0 0 1 -5.062.891 18.849 18.849 0 0 1 -12.281-5.07c-5.891-5.157-11.7-15.563-10.4-28.985-16.961 4.664-29.961 17.407-30.133 17.571a7.987 7.987 0 0 1 -11.297-.025zm57.351-11.9c.711 8.172 5.438 12.218 6.844 12.39 4.062-1.554 7.312-6.515 6.789-10.984-.711-6.07-8.406-7.914-13.078-8.477a23.071 23.071 0 0 0 -.555 7.074zm-320.344 28.479c-7-7.593-19.836-16.125-43.226-23.156a8 8 0 1 1 4.609-15.328c34.352 10.336 50.383 24.469 57.539 37.086 22.657 2.8 39.9 19.812 40.742 20.656a8 8 0 0 1 -11.312 11.311c-.141-.133-10.492-10.266-24.164-14.516.476 9.6-2.977 18.781-9.461 24.453a17.353 17.353 0 0 1 -11.328 4.649 13.888 13.888 0 0 1 -4.758-.836c-10.383-3.75-17.273-14.65-16.014-25.358 1.061-9.133 7.405-15.906 17.373-18.961zm-1.484 20.821c-.4 3.351 2.156 7.218 5.57 8.453a17.319 17.319 0 0 0 4.157-11.2 18.489 18.489 0 0 0 -.316-3.505c-3.341.525-8.919 2.033-9.411 6.252z" fill="#38b6ff"/><path d="m77.076 58.73 5.078 1.37a32.073 32.073 0 0 1 22.546 22.551l1.367 5.055a11.126 11.126 0 0 0 21.492.016l1.367-5.078a32.076 32.076 0 0 1 22.547-22.544l5.07-1.368a11.126 11.126 0 0 0 0-21.492l-5.07-1.366a32.078 32.078 0 0 1 -22.546-22.547l-1.367-5.07a11.128 11.128 0 0 0 -21.492-.008l-1.368 5.076a32.074 32.074 0 0 1 -22.554 22.547l-5.054 1.366a11.127 11.127 0 0 0 -.016 21.492zm39.734-32.436a48.211 48.211 0 0 0 21.695 21.686 48.276 48.276 0 0 0 -21.695 21.7 48.22 48.22 0 0 0 -21.687-21.7 48.155 48.155 0 0 0 21.687-21.686zm226.955 52.381 3.7 1.008a21.157 21.157 0 0 1 14.9 14.9l.992 3.672a10.275 10.275 0 0 0 19.851.016l.992-3.688a21.192 21.192 0 0 1 14.906-14.906l3.672-.992a10.272 10.272 0 0 0 .022-19.845l-3.7-1.008a21.173 21.173 0 0 1 -14.9-14.891l-.992-3.679a10.272 10.272 0 0 0 -19.843-.024l-1.008 3.7a21.157 21.157 0 0 1 -14.9 14.9l-3.672.992a10.272 10.272 0 0 0 -.023 19.843zm29.515-21.312a37.517 37.517 0 0 0 11.406 11.4 37.319 37.319 0 0 0 -11.406 11.388 37.3 37.3 0 0 0 -11.39-11.4 37.2 37.2 0 0 0 11.39-11.388zm132.184 288.237-61.253-68.581c7.122-3.851 14.644-9.882 14.644-18.651 0-9.023-6.431-22.131-60.346-32.518l-101.982-114.185a23.073 23.073 0 0 0 17.692-15.465 23.321 23.321 0 0 0 -8.407-26.522l-15.288-11.291a7.638 7.638 0 0 1 -2.718-8.594l6-18.03a23.3 23.3 0 0 0 -8.391-26.532 23.312 23.312 0 0 0 -27.835-.218l-15.461 11.054a7.641 7.641 0 0 1 -9.019-.067l-15.292-11.292a23.339 23.339 0 0 0 -27.829-.208 23.326 23.326 0 0 0 -8.8 26.406l5.742 18.117a7.674 7.674 0 0 1 -2.859 8.562l-15.462 11.052a23.671 23.671 0 0 0 13.593 42.927l19 .149a7.664 7.664 0 0 1 7.266 5.359l5.734 18.117a23.329 23.329 0 0 0 22.39 16.531h.195a23.311 23.311 0 0 0 22.446-16.187l1.716-5.153 72.012 87.144c-12.264-.945-25.061-1.619-38.137-2.086-12.24-.531-25.268-.836-38.81-.836-24.152 0-43.284.669-58.731 1.751-12.776.716-25.259 1.606-36.931 2.8-71.12 7.29-107.188 20.475-107.188 39.208 0 19.019 37.607 29.77 80.455 35.851l-6.121 35.688-22.608 131.98a24.621 24.621 0 0 0 13.9 26.624c45.687 20.813 133.3 23.391 137.443 23.5 3.7-.109 91.317-2.687 137.011-23.5a24.626 24.626 0 0 0 13.891-26.624l-28.721-167.642q8.211-1.2 15.805-2.58l72.888 88.2a25.72 25.72 0 0 0 38.366-34.258zm-62.564-87.546c-.013.026-1.315 2.728-9.788 6.54l-16.164-18.1c19.025 5.317 25.252 10.16 25.952 11.56zm-192.843-145.615-6.008 18.032a7.835 7.835 0 0 1 -7.344 5.25 7.456 7.456 0 0 1 -7.266-5.36l-5.733-18.117a23.613 23.613 0 0 0 -22.391-16.53l-19.006-.149a7.669 7.669 0 0 1 -4.4-13.914l15.461-11.051a23.637 23.637 0 0 0 8.8-26.407l-5.742-18.116a7.47 7.47 0 0 1 2.859-8.562 8.072 8.072 0 0 1 4.539-1.5 7.409 7.409 0 0 1 4.485 1.57l15.289 11.287a23.612 23.612 0 0 0 27.835.211l15.452-11.055a7.679 7.679 0 0 1 11.75 8.672l-6.008 18.03a23.6 23.6 0 0 0 8.4 26.532l15.284 11.288a7.675 7.675 0 0 1 -4.546 13.85h-.067l-19.015-.148c-10.085-.652-19.385 6.438-22.628 16.187zm-31.678 118.967c25.323-.891 51.52-.878 76.807.051 20.262.912 38.09 2.518 50.844 4.644-18.2 3.007-49.49 5.523-90.028 5.523-40.733 0-72.264-2.578-90.256-5.516 11.954-1.946 29.994-3.718 52.633-4.702zm172.978 233.157a8.631 8.631 0 0 1 -4.757 9.375c-42.734 19.468-129.942 22.046-130.379 22.062-.875-.016-88.084-2.594-130.81-22.062a8.626 8.626 0 0 1 -4.765-9.375l21.354-124.642c33.653 4.45 72.715 6.88 114 6.88 41.332 0 80.394-2.429 114.009-6.854zm-246.657-140.435 4.778-27.892c50.308 5.754 102.328 5.894 106.522 5.894 38.531 0 75.068-2.043 106.538-5.788l4.766 27.813c-32.788 4.294-70.904 6.645-111.304 6.645-40.354 0-78.469-2.363-111.3-6.672zm111.3-38c-44.937 0-82.225-2.647-111.438-6.431-.123-.027-.215-.11-.34-.132-.17-.027-.325.034-.494.017-46.59-6.1-72.314-15.111-74.629-20.906 1.227-3.279 16.47-13.042 66.525-20.351 1.391 6.6 13.562 19.3 120.376 19.3 44.9 0 84.081-3.1 103.481-7.989l22.991 27.82c-34.8 5.544-79.928 8.675-126.472 8.675zm236.751 83.842a9.426 9.426 0 0 1 -7.023 2.452 9.839 9.839 0 0 1 -6.945-3.5l-210.818-255.144a7.609 7.609 0 0 1 4.544-1.526h.054l3.054.023 217.909 243.979a9.721 9.721 0 0 1 -.773 13.719zm-67.251-152.322v-5.921h-5.922a8 8 0 0 1 0-16h5.922v-5.922a8 8 0 0 1 16 0v5.922h5.914a8 8 0 0 1 0 16h-5.914v5.921a8 8 0 0 1 -16 0zm-10.487-195.713a8 8 0 0 1 8-8h5.922v-5.922a8 8 0 1 1 16 0v5.922h5.92a8 8 0 1 1 0 16h-5.92v5.914a8 8 0 0 1 -16 0v-5.914h-5.922a8 8 0 0 1 -8-8zm-151.013 144.121v11.086h11.078a8 8 0 1 1 0 16h-11.078v11.078a8 8 0 1 1 -16 0v-11.079h-11.076a8 8 0 1 1 0-16h11.076v-11.085a8 8 0 1 1 16 0zm-257.406-82.311a8 8 0 0 1 2.82-15.745c4.781.859 117.857 22.171 191.026 128.817a8 8 0 1 1 -13.186 9.046c-69.273-100.946-179.554-121.923-180.66-122.118zm387.115 39.355c-26.03 2.929-45.983 22.609-46.952 23.57a8 8 0 0 0 11.312 11.319c.172-.164 13.172-12.9 30.132-17.569-1.305 13.421 4.508 23.827 10.4 28.983a18.846 18.846 0 0 0 12.281 5.071 15.014 15.014 0 0 0 5.061-.891c11.469-4.141 19.079-16.172 17.7-27.968-1.242-10.617-9-18.336-21.164-21.414 7.953-9.375 23.156-19.936 51.9-28.577a8 8 0 0 0 -4.609-15.328c-39.835 11.98-58.084 28.332-66.061 42.804zm10.961 15.9c4.672.563 12.366 2.406 13.077 8.477.524 4.467-2.726 9.428-6.788 10.983-1.406-.172-6.133-4.219-6.844-12.39a23.065 23.065 0 0 1 .555-7.076zm-338.265 54.5c-1.258 10.7 5.633 21.609 16.015 25.359a13.864 13.864 0 0 0 4.758.836 17.352 17.352 0 0 0 11.328-4.648c6.484-5.672 9.937-14.852 9.461-24.453 13.671 4.25 24.022 14.383 24.163 14.515a8 8 0 0 0 11.312-11.309c-.843-.844-18.086-17.859-40.741-20.655-7.156-12.618-23.187-26.749-57.538-37.085a8 8 0 0 0 -4.609 15.327c23.39 7.031 36.225 15.562 43.225 23.156-9.967 3.057-16.311 9.825-17.374 18.957zm25.616-.883a17.324 17.324 0 0 1 -4.156 11.2c-3.414-1.235-5.969-5.1-5.57-8.454.492-4.218 6.07-5.726 9.406-6.25a18.408 18.408 0 0 1 .32 3.504z" fill="#1d4976"/></svg>