<svg id="Layer_1" enable-background="new 0 0 486.897 486.897" height="512" viewBox="0 0 486.897 486.897" width="512" xmlns="http://www.w3.org/2000/svg"><g><path d="m353.042 283.104c-12.389 44.992-28.736 104.348-45.72 166-10.04 29.18-80.97 31.23-158.42 4.57-24.57-8.46-46.85-18.79-65.49-29.88v-.01c-40.12-23.86-63.41-51.28-56.56-71.2 3.451-8.142 42.28-99.723 67.16-158.38 73.785 42.357 175.577 77.202 259.03 88.9z" fill="#404077"/><path d="m481.607 260.895c-8.56 24.87-59.11 31.96-128.56 22.21-39.88-5.59-86.01-16.74-133.99-33.25-128.301-44.153-227.545-112.814-213.76-152.87 13.48-39.16 131.03-34.22 262.56 11.04 131.53 45.27 227.23 113.71 213.75 152.87z" fill="#52528c"/><ellipse cx="243.454" cy="169.94" fill="#404077" rx="44.157" ry="148.306" transform="matrix(.325 -.946 .946 .325 3.542 344.846)"/><path d="m473.182 34.344c-.518.757-.761 1.24-1.51 1.55-103.97 43.666-193.372 81.217-297.52 124.96-.69.29-1.48.23-2.12-.18-6.25-1.08-10.33-6.5-10.33-12.27 0-3.254 1.149-5.231 2.18-7.13.16-.73.67-1.34 1.36-1.64 312.556-131.27 297.28-125.361 299.63-124.96 9.09 1.6 13.5 12.05 8.31 19.67z" fill="#404077"/><path d="m473.182 34.344c-.518.757-.761 1.24-1.51 1.55l-72.24 30.34c6.31-16.49-7.81-21.67-7.81-21.67.1-.067-1.771.737 71.15-29.89.718-.305 1.223-.15 2.1 0 9.09 1.6 13.5 12.05 8.31 19.67z" fill="#ff4a6d"/><path d="m353.042 283.104-12.41 45.07c-82.487 5.327-160.248-16.61-224-58.84-13.656-9.042-29.465-21.035-40.77-32.34l18.15-42.79c73.539 42.215 175.281 77.161 259.03 88.9z" fill="#ff4a6d"/><path d="m191.082 306.924c-15.27 36.18-32.91 87.31-42.18 146.75-24.57-8.46-46.85-18.79-65.49-29.88v-.01c-1.25-66.41 16.35-119.33 33.22-154.45 18.78 12.44 43.78 26.34 74.45 37.59z" fill="#52528c"/><path d="m219.052 249.854s-12.81 21.19-27.97 57.07c-30.67-11.25-55.67-25.15-74.45-37.59 15.04-31.31 29.5-48.49 29.5-48.49 23.225 10.671 49.833 21.097 72.92 29.01z" fill="#ff617f"/><g fill="#ffd54f"><path d="m265.15 157.413 7.811-6.9c2.513-2.22 6.48-.595 6.714 2.75l.726 10.396c.093 1.328.833 2.526 1.98 3.202l8.976 5.296c2.888 1.704 2.568 5.979-.541 7.235l-9.663 3.903c-1.235.499-2.145 1.573-2.434 2.872l-2.263 10.173c-.728 3.273-4.893 4.29-7.048 1.721l-6.698-7.984c-.856-1.02-2.159-1.554-3.484-1.427l-10.374.991c-3.338.319-5.592-3.328-3.815-6.171l5.524-8.837c.706-1.129.811-2.533.281-3.754l-4.148-9.56c-1.335-3.076 1.437-6.347 4.69-5.535l10.112 2.523c1.288.321 2.656-.013 3.654-.894z"/><path d="m215.329 22.419 7.811-6.9c2.513-2.22 6.48-.595 6.714 2.75l.726 10.396c.093 1.328.833 2.526 1.98 3.202l8.976 5.296c2.888 1.704 2.568 5.979-.541 7.235l-9.663 3.903c-1.235.499-2.145 1.573-2.434 2.872l-2.263 10.173c-.728 3.273-4.893 4.29-7.048 1.721l-6.698-7.984c-.856-1.02-2.159-1.554-3.484-1.427l-10.374.991c-3.338.319-5.592-3.328-3.815-6.171l5.524-8.837c.706-1.129.811-2.533.281-3.754l-4.148-9.56c-1.335-3.076 1.437-6.347 4.69-5.535l10.112 2.523c1.288.322 2.656-.012 3.654-.894z"/></g></g><g><path d="m436.562 187.234c-34.96-26.03-84.58-51.86-140.51-73.23l177.17-74.42c1.78-.74 2.51-1.88 3.26-2.98 6.84-10.04 1.02-23.77-10.92-25.87-1.36-.24-2.57-.49-4.34.26l-208.8 87.69c-60.61-19.48-119.33-30.85-165.48-32.02-48.95-1.25-78.47 8.79-85.43 29.02-4.73 13.74 1.65 30.16 18.96 48.8 15.26 16.42 38.9 34.15 68.49 51.4-68.66 161.9-65.79 155.13-65.89 155.4-10.92 31.75 43.78 78.39 124.53 106.17 35.7 12.29 71.14 18.95 100.54 18.95 22.84 0 55.53-4.39 62.97-26 0 .03.83-2.99 44.86-162.87 19.24 2.57 36.7 3.85 52.1 3.85 43.36 0 70.72-10.02 77.31-29.19 6.92-20.1-9.96-46.02-48.82-74.96zm27.3-168.67c3.39.59 5.66 2.46 6.84 5.24 1.18 2.81.92 5.73-1.04 8.6l-64.66 27.16c.34-5.7-1.54-10.46-5.14-14.13zm-72.32 30.37c2.66 1.48 7.4 5.48 4.69 14.31-10.87 4.57-215.26 90.41-222.94 93.64-.73-.247-4.586-.542-6.658-4.634-1.284-2.536-.77-7.368.758-9.046zm-219.614 116.049c1.313.125 2.513.09 3.774-.439l79.03-33.19 1.79.61c80.41 27.67 129.57 66.97 123.39 84.94-6.18 17.95-69.11 18.68-149.53-8.99-37.1-12.77-70.46-29.04-93.92-45.82-21.57-15.43-32.58-30.04-29.46-39.11 2.55-7.39 15.03-12.04 34.25-12.76 17.75-.65 40.71 2.03 65.62 7.59l-43.18 18.14c-1.385.581-4.729 4.315-5.776 8.356-2.492 9.628 4.709 19.785 14.012 20.673zm131.574 282.931c-4.28 12.18-22.58 19.62-50.22 20.42-60.95 1.75-148.7-28.44-195.66-67.34-21.29-17.63-31.13-34.75-27.02-46.98l46.67-110.08c8.9 8.28 31.45 27.55 66.54 46.23 57.46 30.59 123.46 45.72 191.49 42.32zm34.04-123.57c-83.73 4.77-149.28-19.63-189.68-41.09-37.45-19.9-60.76-40.96-67.25-47.19l15.33-36.16c71.04 40.03 169.15 74.18 252.04 86.51zm140.28-64.75c-7.49 21.76-55.09 29.26-124.22 19.55-30.75-4.31-64.35-11.82-98.71-22.01-97.07-28.78-159-66.46-158.9-66.4-61.15-35.12-94.46-70.54-86.92-92.45 5.56-16.13 33.84-24.74 77.67-23.62 43.14 1.09 97.57 11.29 154.27 28.81l-21.64 9.09c-29.64-7.44-57.45-11.11-78.41-10.33-23.38.86-37.73 7.14-41.52 18.15-14.61 42.42 136.59 113.15 232.84 117.2 18.65.79 49.11-.42 55.19-18.08 4.53-13.16-6.67-29.83-32.37-48.22-22.67-16.21-54.2-31.91-89.36-44.55l19.57-8.23c118.02 43.75 204.28 106.9 192.51 141.09z"/><path d="m268.878 50.07h15.333v12c0 2.209 1.791 4 4 4s4-1.791 4-4v-12h14c2.209 0 4-1.791 4-4s-1.791-4-4-4h-14v-12c0-2.209-1.791-4-4-4s-4 1.791-4 4v12h-15.333c-2.209 0-4 1.791-4 4s1.791 4 4 4z"/><path d="m410.952 143.404c2.209 0 4-1.791 4-4v-12h14c2.209 0 4-1.791 4-4s-1.791-4-4-4h-14v-12c0-2.209-1.791-4-4-4s-4 1.791-4 4v12h-15.333c-2.209 0-4 1.791-4 4s1.791 4 4 4h15.333v12c0 2.209 1.791 4 4 4z"/><path d="m124.373 40.07h15.334v12c0 2.209 1.791 4 4 4s4-1.791 4-4v-12h14c2.209 0 4-1.791 4-4s-1.791-4-4-4h-14v-12c0-2.209-1.791-4-4-4s-4 1.791-4 4v12h-15.334c-2.209 0-4 1.791-4 4s1.791 4 4 4z"/><path d="m293.392 168.714-9-5.33-.73-10.4c-.46-6.65-8.35-9.88-13.35-5.47l-7.81 6.9c-.1.02.54.16-10.15-2.51-6.46-1.62-11.99 4.88-9.33 11.01l4.14 9.6-5.52 8.84c-3.53 5.66.96 12.91 7.59 12.27l10.41-.97 6.7 7.98c4.28 5.11 12.57 3.08 14.02-3.42l2.29-10.21 9.66-3.9c6.18-2.5 6.82-11 1.08-14.39zm-13.74 10.87c-2.45.99-4.26 3.13-4.84 5.72l-2.34 10.19-6.7-7.99c-1.7-2.02-4.29-3.09-6.93-2.83l-10.42.92 5.53-8.84c1.4-2.25 1.61-5.04.56-7.47l-4.1-9.62 10.11 2.52c2.57.64 5.29-.02 7.28-1.77l7.88-6.87.73 10.39c.18 2.65 1.65 5.03 3.94 6.37l8.96 5.38z"/><path d="m243.562 33.724-8.99-5.34-.73-10.39c-.46-6.65-8.36-9.88-13.35-5.47l-7.85 6.91c-.103 0 .258.067-10.11-2.53-6.47-1.61-11.99 4.9-9.33 11.01l4.14 9.61-5.52 8.83c-3.53 5.65.94 12.91 7.59 12.28l10.41-.98 6.7 7.99c4.28 5.1 12.57 3.08 14.01-3.43l2.3-10.2 9.66-3.91c6.18-2.49 6.81-11 1.07-14.38zm-13.73 10.87c-2.46.99-4.27 3.13-4.84 5.71l-2.34 10.19-6.7-7.98c-1.54-1.83-3.8-2.88-6.16-2.88-.55 0-.06-.02-11.19.96l5.53-8.83c1.4-2.25 1.61-5.04.55-7.47l-4.09-9.62 10.11 2.52c2.57.64 5.29-.02 7.27-1.78.11-.05-.96.85 7.89-6.87l.73 10.4c.18 2.64 1.65 5.02 3.93 6.37l8.97 5.38z"/></g></svg>