<?xml version="1.0" encoding="UTF-8"?>
<svg xmlns="http://www.w3.org/2000/svg" xmlns:xlink="http://www.w3.org/1999/xlink" version="1.1" id="Layer_1" x="0px" y="0px" viewBox="0 0 468.263 468.263" style="enable-background:new 0 0 468.263 468.263;" xml:space="preserve" width="512" height="512">
<g>
	<g>
		<path style="fill:#79E9B3;" d="M299.071,467.006c0,0-5.08-0.24-13.96-1.76c-1.28-0.22-2.63-0.46-4.05-0.74    c-7-1.35-15.81-3.42-25.97-6.57c-13.74-4.26-29.95-10.51-47.53-19.65c-69.92-36.37-161.44-118.59-204.92-304.13    c-1.96-8.38,1.98-17.07,9.44-20.65c16.66-7.98,48.38-20.48,86.06-22.04c1.71-0.07,3.43-0.12,5.16-0.15    c11.56-0.17,23.64,0.73,35.96,3.13c57.45,11.18,121.22,226.2,147.48,324.39c1.06,3.95,2.06,7.72,2.99,11.27    C295.701,452.876,299.071,467.006,299.071,467.006z"/>
		<path style="fill:#B4FFC6;" d="M218.701,407.006c-19.97-9.71-37.62-21.25-53.17-33.79c-68.48-55.17-96.47-129.76-104.06-153.77    c-1.3-4.1,0.51-8.6,4.23-10.41c27.99-13.61,23.61-45.77,20.04-60.06c-1.06-4.24,1.11-8.64,5.01-10.17    c4.5-1.77,8.73-3.05,12.58-3.96c8.22-1.94,14.76-2.23,18.75-2.14c2.64,0.06,5.07,1.46,6.55,3.76    C151.301,171.706,337.281,464.656,218.701,407.006z"/>
		<path style="fill:#14D2AA;" d="M299.071,467.006c0,0-5.08-0.24-13.96-1.76c-1.28-0.22-2.63-0.46-4.05-0.74    c-7-1.35-15.81-3.42-25.97-6.57c-5.31-2.75-11.14-6.1-17.33-10.15c-21.99-14.38-48.55-37.63-72.23-74.57    c15.55,12.54,33.2,24.08,53.17,33.79c118.58,57.65-67.4-235.3-90.07-270.54c-1.48-2.3-3.91-3.7-6.55-3.76    c-3.99-0.09-10.53,0.2-18.75,2.14c-0.39-13.93-0.41-28.43-0.03-43.53c11.56-0.17,23.64,0.73,35.96,3.13    c57.45,11.18,121.22,226.2,147.48,324.39c1.06,3.95,2.06,7.72,2.99,11.27C295.701,452.876,299.071,467.006,299.071,467.006z"/>
		<path style="fill:#79E9B3;" d="M218.701,407.006c-19.97-9.71-37.62-21.25-53.17-33.79c-32.19-50.16-59.11-125.58-62.2-238.37    c8.22-1.94,14.76-2.23,18.75-2.14c2.64,0.06,5.07,1.46,6.55,3.76C151.301,171.706,337.281,464.656,218.701,407.006z"/>
		<path style="fill:#79E9B3;" d="M299.451,464.396c-0.25,1.71-0.38,2.61-0.38,2.61s-1.8-0.4-5.05-1.43    c-3.02-0.96-7.3-2.46-12.54-4.71c-7.87-3.37-17.91-8.4-29.13-15.74c-57.97-37.92-147.57-137.37-133.2-386.84    c0.47-8.14,6.08-14.94,13.69-16.53c21.29-4.47,66.2-11.19,112.26-1.42c2.49,0.53,4.98,1.1,7.47,1.73    c9.72,2.45,19.44,5.67,28.95,9.85c2.006,0.927,3.567,1.743,5.9,3.52C349.421,103.046,304.121,431.776,299.451,464.396z"/>
		<path style="fill:#B4FFC6;" d="M271.301,336.896c0,0-21.12,34.37-33.55,42.16c-2.85,1.79-5.25,2.17-6.83,0.43    c-5.28-5.83-10.22-11.75-14.84-17.74c-68.88-89.32-66.41-193.31-64.43-220.16c0.27-3.79,2.93-6.88,6.46-7.7    c34.91-8.02,36.32-35.23,34.5-49.43c-0.64-5.04,2.76-9.36,7.58-9.69c10.92-0.74,21.32-0.45,30.51,0.32    c3.01,0.25,5.89,0.55,8.62,0.88c9.15,1.12,16.6,2.6,21.47,3.71c3.7,0.84,6.36,4.23,6.43,8.21L271.301,336.896z"/>
		<path style="fill:#14D2AA;" d="M299.451,464.396c-0.25,1.71-0.38,2.61-0.38,2.61s-1.8-0.4-5.05-1.43    c-3.02-0.96-7.3-2.46-12.54-4.71c-8.7-11.7-27.69-39.84-43.73-81.81c12.43-7.79,33.55-42.16,33.55-42.16l-4.08-249.01    c-0.07-3.98-2.73-7.37-6.43-8.21c-4.87-1.11-12.32-2.59-21.47-3.71c3.94-11.12,8.34-22.42,13.25-33.9    c9.72,2.45,19.44,5.67,28.95,9.85c2.006,0.927,3.567,1.743,5.9,3.52C349.421,103.046,304.121,431.776,299.451,464.396z"/>
		<path style="fill:#79E9B3;" d="M271.301,336.896c0,0-21.12,34.37-33.55,42.16c-26.1-68.22-44.46-172.97,1.57-303.09    c9.15,1.12,16.6,2.6,21.47,3.71c3.7,0.84,6.36,4.23,6.43,8.21L271.301,336.896z"/>
		<path style="fill:#79E9B3;" d="M463.657,116.206c-20.34,35.239-73.358,145.04-44.756,291.821    c1.587,8.147-2.295,16.385-9.456,19.905c-21.901,10.768-69.175,32.256-110.372,39.074c0,0-154.689-180.563-20.257-454.272    c3.639-7.41,11.638-11.208,19.33-9.192c29.092,7.627,101.176,31.278,162.378,89.983    C466.587,99.342,467.916,108.827,463.657,116.206z"/>
		<path style="fill:#B4FFC6;" d="M354.192,64.704c8.599,3.45,23.88,10.091,36.049,18.128c3.191,2.108,4.598,6.208,3.43,9.978    c-3.508,11.325-7.559,36.213,17.5,51.369c3.76,2.274,5.153,7.266,3.16,11.319c-12.065,24.521-46.615,105.466-32.87,204.487    c0.668,4.809-1.903,9.469-6.182,11.3c-7.847,3.358-18.576,12.747-15.92,38.983c0.349,3.446-1.268,6.769-4.145,8.458    c-3.911,2.296-10.077,5.14-18.005,6.296c-3.834,0.559-7.534-1.776-8.805-5.622c-2.925-8.853-11.063-24.875-32.616-31.669    c-2.697-0.85-4.778-3.114-5.504-5.976c-6.99-27.566-38.95-168.371,5.464-282.559c1.279-3.289,4.36-5.423,7.736-5.311    c9.003,0.297,27.502-2.289,40.846-25.569C346.367,64.764,350.508,63.226,354.192,64.704z"/>
		<path style="fill:#EDD15A;" d="M161.217,467.006c58.633,0,106.164-58.263,106.164-130.134S219.85,206.739,161.217,206.739h-41.912    v260.268H161.217z"/>
		<ellipse style="fill:#FAE26B;" cx="119.305" cy="336.872" rx="106.164" ry="130.134"/>
		<ellipse style="fill:#EDD15A;" cx="119.305" cy="336.872" rx="83.806" ry="102.728"/>
	</g>
	<path style="fill:#52528C;" d="M149.727,382.954c-4.313,4.454-11.395,9.763-20.644,9.763c-13.417,0-25.436-11.487-31.951-28.19   h22.296c5.522,0,10-4.477,10-10s-4.478-10-10-10H92.404c-0.263-2.644-0.405-5.34-0.405-8.075c0-3.464,0.229-6.862,0.647-10.172   h26.781c5.522,0,10-4.477,10-10s-4.478-10-10-10H97.992c6.68-15.559,18.244-26.093,31.092-26.093   c9.249,0,16.331,5.309,20.644,9.763c3.842,3.967,10.174,4.07,14.141,0.228c3.968-3.841,4.07-10.172,0.229-14.14   c-10.041-10.37-22.147-15.851-35.013-15.851c-15.905,0-30.624,8.387-41.445,23.617c-4.707,6.625-8.413,14.239-11.042,22.476H64.004   c-5.522,0-10,4.477-10,10s4.478,10,10,10h8.503c-0.329,3.348-0.508,6.743-0.508,10.172c0,2.716,0.115,5.408,0.322,8.075h-8.317   c-5.522,0-10,4.477-10,10s4.478,10,10,10h11.94c2.65,9.047,6.589,17.389,11.694,24.573c10.821,15.229,25.54,23.617,41.445,23.617   c12.865,0,24.972-5.481,35.013-15.851c3.842-3.968,3.739-10.299-0.229-14.14C159.899,378.884,153.57,378.986,149.727,382.954z"/>
</g>
<g>
	<path d="M461.906,91.083C400.137,31.838,327.158,8.077,298.649,0.612c-8.658-2.275-17.554,1.938-21.633,10.243   c-5.078,10.34-9.796,20.682-14.178,31.019c-53.045-16.31-108.755-7.62-130.406-3.075c-17.904,3.74-15.898,22.045-16.555,49.78   c-45.564-2.486-85.032,12.727-104.661,22.124c-8.273,3.971-12.698,13.605-10.522,22.909c9.717,41.476,22.418,80.025,37.747,114.609   c-61.59,84.7-12.26,219.785,80.861,219.785c43.371,0,69.248,4.265,101.612-22.002c18.976,8.632,58.573,22.002,78.157,22.002   c22.88,0,90.748-29.201,111.253-39.275c7.978-3.922,12.312-13.005,10.54-22.087c-28.042-143.921,21.799-251.056,44.53-290.439   C470.076,108.075,468.608,97.509,461.906,91.083z M121.148,57.401c0.419-7.247,5.396-13.286,12.104-14.688   c21.295-4.47,75.981-13.008,128.018,2.864c-4.016,9.657-7.719,19.31-11.125,28.954c-12.182-2.073-30.27-4.104-50.092-2.761   c-5.924,0.406-10.22,5.7-9.427,11.94c1.844,14.385,0.014,39.65-32.97,47.227c-4.454,1.036-7.67,4.855-8.001,9.501   c-0.826,11.166-1.641,34.021,1.939,63.297h-25.894C119.64,159.52,118.101,110.305,121.148,57.401z M194.595,83.205   c-0.505-3.974,2.133-7.197,5.73-7.443c19.071-1.293,36.538,0.604,48.486,2.599c-16.682,48.385-26.178,98.07-26.853,148.233   c-21.946-18.264-42.524-22.858-66.332-22.858c-3.607-29.17-2.801-51.923-1.981-63.007c0.206-2.89,2.183-5.259,4.913-5.894   C195.955,126.244,196.218,95.865,194.595,83.205z M121.668,203.736c-20.569,0-38.865,5.129-56.974,18.123   c-1.123-3.339-3.743-9.287,1.882-12.024c29.521-14.354,24.594-48.38,21.105-62.343c-0.821-3.288,0.813-6.651,3.804-7.825   c10.002-3.94,18.581-5.343,24.525-5.782C116.766,158.297,118.658,181.631,121.668,203.736z M4.588,132.701   c-1.752-7.491,1.763-15.226,8.356-18.391c19.301-9.24,58.105-24.201,102.853-21.729c-0.243,12.683-0.207,25.123,0.107,37.302   c-6.253,0.447-15.326,1.902-25.884,6.062c-4.854,1.904-7.528,7.286-6.221,12.517c3.252,13.016,7.914,44.702-18.975,57.776   c-8.496,4.135-5.378,12.653-3.501,18.135c-7.358,5.73-14.113,12.515-20.122,20.181C26.377,210.723,14.059,173.119,4.588,132.701z    M161.221,464.006h-41.916c-57.437,0-104.164-57.48-104.164-128.134c0-64.34,40.984-127.179,104.188-128.136h41.892   c57.435,0,104.16,57.483,104.16,128.14C265.381,406.527,218.656,464.006,161.221,464.006z M224.3,443.143   c14.885-13.1,3.066-12.354,30.062,4.642c0.933,0.588,2.168,0.31,2.758-0.627c1.87-2.968-2.301-2.406-20.348-16.831   c7.887-9.417,14.604-20.289,19.854-32.26c15.306,34.392,31.458,57.052,37.959,65.515C284.311,462.394,257.667,458.06,224.3,443.143   z M461.928,114.207c-44.343,76.832-66.262,184.034-44.99,293.203c1.427,7.314-2.02,14.605-8.379,17.732   c-23.522,11.557-68.729,31.847-108.682,38.701c-3.921-4.835-23.32-29.785-41.121-70.882   c22.234-56.463,8.852-124.778-32.836-162.914c0.385-71.166,18.779-144.314,54.686-217.428c3.23-6.577,10.232-9.921,17.028-8.137   c28.208,7.387,100.411,30.893,161.503,89.489C464.53,99.14,465.703,107.652,461.928,114.207z"/>
	<path d="M412.206,141.467c-23.32-14.103-20.426-36.794-16.625-49.066c1.429-4.613-0.314-9.646-4.238-12.238   c-12.441-8.218-28.15-15.003-36.406-18.315c-4.606-1.85-9.796,0.033-12.342,4.474c-20.88,36.425-42.828,16.025-48.711,31.149   C249.233,212.269,281.437,354,288.346,381.246c0.903,3.563,3.461,6.327,6.841,7.393c35.337,11.139,25.351,37.465,40.895,37.465   c2.803,0,26.614-3.722,25.268-17.038c-4.571-45.159,24.972-29.589,22.094-50.356c-13.754-99.079,21.539-180.68,32.684-203.329   C418.58,150.392,416.858,144.28,412.206,141.467z M412.536,153.615c-11.271,22.908-46.966,105.438-33.057,205.645   c2.094,15.085-26.656,5.301-22.111,50.209c0.271,2.679-0.972,5.243-3.167,6.532c-7.49,4.397-21.158,10.067-23.897,1.771   c-3.065-9.279-11.548-25.898-33.914-32.949c-2.019-0.636-3.615-2.383-4.167-4.56c-36.174-142.656-6.821-285.382,11.014-285.382   c38.713,0,38.659-33.949,50.21-29.321c8.116,3.257,23.545,9.918,35.691,17.941c2.45,1.618,3.528,4.792,2.623,7.717   c-3.339,10.777-8.23,37.582,18.375,53.672C413.029,146.639,414.083,150.471,412.536,153.615z"/>
	<path d="M197.427,244.469c-1.634-2.083-4.779,0.388-3.148,2.469c38.404,48.973,38.95,126.177,1.463,175.967   c-0.996,1.324-0.035,3.203,1.596,3.203C207.364,426.108,259.643,323.812,197.427,244.469z"/>
	<path d="M119.305,231.144c-47.313,0-85.807,46.981-85.807,104.729s38.493,104.729,85.807,104.729s85.807-46.981,85.807-104.729   S166.618,231.144,119.305,231.144z M119.305,436.601c-45.108,0-81.807-45.187-81.807-100.729s36.698-100.729,81.807-100.729   s81.807,45.187,81.807,100.729S164.413,436.601,119.305,436.601z"/>
	<g>
		<path d="M74.457,366.527H64.004c-6.617,0-12-5.383-12-12s5.383-12,12-12h6.177c-0.275-4.701-0.244-9.31,0.143-14.248h-6.319    c-6.617,0-12-5.383-12-12s5.383-12,12-12h11.143c15.84-47.092,60.787-60.2,90.386-29.633c2.229,2.303,3.43,5.336,3.378,8.541    c-0.173,10.699-13.241,15.775-20.62,8.153c-16.764-17.313-36.719-8.455-47.182,12.938h18.319c6.617,0,12,5.383,12,12    s-5.383,12-12,12H94.429c-0.499,4.798-0.562,9.471-0.193,14.248h25.192c6.617,0,12,5.383,12,12s-5.383,12-12,12h-19.299    c10.339,23.376,31.113,32.642,48.161,15.036c0,0,0,0,0,0c7.457-7.699,20.449-2.439,20.62,8.154    c0.052,3.205-1.148,6.238-3.378,8.541C135.282,429.498,89.474,414.947,74.457,366.527z M64.004,346.527c-4.411,0-8,3.589-8,8    s3.589,8,8,8h11.939c0.888,0,1.67,0.585,1.919,1.438c7.262,24.789,25.747,46.752,51.221,46.752c12.31,0,23.92-5.271,33.576-15.242    c1.486-1.535,2.286-3.558,2.251-5.694c-0.114-7.106-8.821-10.522-13.747-5.436v0c-4.581,4.732-12.131,10.372-22.08,10.372    c-13.77,0-26.727-11.29-33.814-29.463c-0.513-1.314,0.461-2.727,1.863-2.727h22.296c4.411,0,8-3.589,8-8s-3.589-8-8-8H92.405    c-1.027,0-1.888-0.779-1.99-1.802c-0.608-6.102-0.565-12.264,0.248-18.696c0.126-1,0.977-1.75,1.984-1.75h26.781    c4.411,0,8-3.589,8-8s-3.589-8-8-8H97.992c-1.433,0-2.405-1.469-1.838-2.789c7.34-17.097,19.65-27.304,32.93-27.304    c9.949,0,17.499,5.64,22.08,10.372c4.926,5.086,13.633,1.684,13.747-5.436c0.035-2.136-0.765-4.159-2.251-5.694    c-9.656-9.972-21.267-15.242-33.576-15.242c-24.699,0-42.916,20.677-50.582,44.701c-0.265,0.829-1.035,1.392-1.905,1.392H64.004    c-4.411,0-8,3.589-8,8s3.589,8,8,8h8.503c0.564,0,1.103,0.239,1.481,0.657c1.132,1.247,0.011,1.764,0.011,11.516    c0,7.866,0.808,8.335-0.21,9.434c-0.378,0.409-0.91,0.642-1.468,0.642H64.004z"/>
	</g>
</g>















</svg>
