<svg id="Capa_1" enable-background="new 0 0 512 512" viewBox="0 0 512 512" xmlns="http://www.w3.org/2000/svg"><g><path d="m390 384h-332c-27.61 0-50-22.39-50-50v-224c0-27.61 22.39-50 50-50h332c27.61 0 50 22.39 50 50v224c0 27.61-22.39 50-50 50z" fill="#d5dadd"/><circle cx="164.77" cy="140.13" fill="#ffb300" r="31.35"/><path d="m111.45 247.15c-9.57-10.92-26.56-10.9-36.12.02l-56.49 64.61c-24.61 28.17-4.61 72.22 32.79 72.22h50.63l64.49-73.76z" fill="#5dc122"/><path d="m315.17 181.77 113.94 129.98c24.68 28.15 4.69 72.26-32.75 72.26h-294.1l176.8-202.21c9.55-10.93 26.54-10.95 36.11-.03z" fill="#256f3a"/><path d="m480 452h-220c-13.25 0-24-10.75-24-24v-88c0-13.25 10.75-24 24-24h220c13.25 0 24 10.75 24 24v88c0 13.25-10.75 24-24 24z" fill="#e76500"/><g><path d="m164.77 179.48c21.7 0 39.35-17.65 39.35-39.35s-17.65-39.35-39.35-39.35-39.36 17.65-39.36 39.35 17.66 39.35 39.36 39.35zm0-62.71c12.88 0 23.35 10.48 23.35 23.35s-10.48 23.35-23.35 23.35-23.36-10.48-23.36-23.35 10.49-23.35 23.36-23.35z"/><path d="m480 308h-32v-198c0-31.98-26.02-58-58-58h-332c-31.98 0-58 26.02-58 58v224c0 31.98 26.02 58 58 58h170v36c0 17.65 14.36 32 32 32h220c17.64 0 32-14.35 32-32v-88c0-17.65-14.36-32-32-32zm-422-240h332c23.16 0 42 18.84 42 42v192.9l-110.81-126.4c-6.08-6.93-14.85-10.91-24.06-10.91-.01 0-.01 0-.02 0-9.22.01-18 3.99-24.07 10.94l-106.29 121.56-49.28-56.21c-6.08-6.93-14.85-10.91-24.06-10.91-.01 0-.01 0-.02 0-9.22.01-18 3.99-24.07 10.94l-53.32 60.98v-192.89c0-23.16 18.84-42 42-42zm-41.95 267.91.21.03c.85-6.89 3.83-13.42 8.61-18.88l56.49-64.61c3.04-3.47 7.42-5.47 12.04-5.47h.01c4.61 0 8.99 1.99 12.03 5.45l50.68 57.82-57.49 65.75h-40.63c-22.52 0-40.95-17.82-41.95-40.09zm211.95 4.09v36h-108.12l165.2-188.94c3.04-3.47 7.42-5.47 12.04-5.47h.01c4.61 0 8.99 1.99 12.03 5.45l106.03 120.96h-155.19c-17.64 0-32 14.35-32 32zm268 88c0 8.82-7.18 16-16 16h-220c-8.82 0-16-7.18-16-16v-88c0-8.82 7.18-16 16-16h220c8.82 0 16 7.18 16 16z"/><path d="m410 336c-4.42 0-8 3.58-8 8v80c0 4.42 3.58 8 8 8s8-3.58 8-8v-80c0-4.42-3.58-8-8-8z"/><path d="m361.66 341.7c-1.02-3.38-4.13-5.7-7.66-5.7s-6.65 2.32-7.66 5.7l-24 80c-1.27 4.23 1.13 8.69 5.36 9.96s8.69-1.13 9.96-5.36l4.29-14.3h24.09l4.29 14.3c1.04 3.47 4.22 5.7 7.66 5.7.76 0 1.54-.11 2.3-.34 4.23-1.27 6.63-5.73 5.36-9.96zm-14.91 54.3 7.25-24.16 7.25 24.16z"/></g></g></svg>