<svg id="Layer_1" enable-background="new 0 0 512 512" viewBox="0 0 512 512" xmlns="http://www.w3.org/2000/svg"><g id="XMLID_1_"><g id="XMLID_4700_"><path id="XMLID_2643_" d="m297 25v70l-30 30h30 190c11 0 20-9 20-20v-80c0-11-9-20-20-20h-170c-11 0-20 8.9-20 20z" fill="#ebeae0"/><path id="XMLID_2642_" d="m146 251v10c0 11 9 20 20 20h20l15 30 15-30h20c11 0 20-9 20-20v-10c0-11-9-20-20-20h-70c-11 0-20 8.9-20 20z" fill="#e36414"/><path id="XMLID_2639_" d="m467 387v-30l-30 30h-120c-11 0-20 9-20 20v80c0 11 9 20 20 20h170c11 0 20-9 20-20v-80c0-11-9-20-20-20z" fill="#e36414"/><path id="XMLID_2714_" d="m185 205h-160c-11 0-20-9-20-20v-120.4h200v120.4c0 11-9 20-20 20z" fill="#b3271e"/><path id="XMLID_2704_" d="m437 308.5h30.2c13.3 0 24.1-10.8 24.1-24.1v-73h-54.3z" fill="#14294d"/><path id="XMLID_2690_" d="m105 435.8h79.2c11.5 0 20.8-9.3 20.8-20.8 0-11.5-9.3-20.8-20.8-20.8h-79.2z" fill="#ffb233"/><path id="XMLID_2687_" d="m105 435.8h-79.2c-11.5 0-20.8-9.3-20.8-20.8 0-11.5 9.3-20.8 20.8-20.8h79.2z" fill="#ffb233"/><path id="XMLID_2719_" d="m68.3 5v87.2h-10.8c-11.5 0-20.8 9.3-20.8 20.8 0 11.5 9.3 20.8 20.8 20.8h10.8v2.8c0 37.7 30.6 68.3 68.3 68.3 37.7 0 68.3-30.6 68.3-68.3v-72c0-33-26.7-59.7-59.7-59.7h-76.9z" fill="#ffc970"/><path id="XMLID_2701_" d="m459.7 211.4v31.8h10.8c11.5 0 20.8 9.3 20.8 20.8 0 11.5-9.3 20.8-20.8 20.8h-10.8v2.8c0 37.7-30.6 68.3-68.3 68.3-37.7 0-68.3-30.6-68.3-68.3v-76.1z" fill="#ffc970"/><g id="XMLID_2725_"><path id="XMLID_3301_" d="m170 99h21v10h-21z" fill="#1f3e75"/></g><g id="XMLID_2724_"><path id="XMLID_3300_" d="m175 133h-10v-16c0-2.8 2.2-5 5-5h10v10h-5z" fill="#1f3e75"/></g><g id="XMLID_2723_"><path id="XMLID_3299_" d="m115 99h21v10h-21z" fill="#1f3e75"/></g><g id="XMLID_2722_"><path id="XMLID_3298_" d="m141 133h-10v-11h-6v-10h11c2.8 0 5 2.2 5 5z" fill="#1f3e75"/></g><path id="XMLID_2718_" d="m150.5 160h4.8c7.9 0 14.3-6.4 14.3-14.3h-33.3c-.1 7.9 6.3 14.3 14.2 14.3z" fill="#db3429"/><path id="XMLID_2715_" d="m205 92.2v-27.5c0-33-26.7-59.7-59.7-59.7h-80.6c-33 .1-59.7 26.8-59.7 59.7v27.4h80.1c6.3 0 11.9-4.2 13.6-10.3l1.1-3.7c2.6-9 13-13 21-8.2l3.4-2.6c5.4-4.2 13-3.9 18.1.6l.7.6c17.1 15.3 39.1 23.7 62 23.7z" fill="#db3429"/><g id="XMLID_2712_"><path id="XMLID_3297_" d="m337 250h21v10h-21z" fill="#1f3e75"/></g><g id="XMLID_2711_"><path id="XMLID_3296_" d="m353 268h10v16h-10z" fill="#1f3e75"/></g><g id="XMLID_2710_"><path id="XMLID_3295_" d="m392 250h21v10h-21z" fill="#1f3e75"/></g><g id="XMLID_2709_"><path id="XMLID_3294_" d="m387 268h10v16h-10z" fill="#1f3e75"/></g><path id="XMLID_2708_" d="m377.5 311h-4.8c-7.9 0-14.3-6.4-14.3-14.3h33.3c.1 7.9-6.3 14.3-14.2 14.3z" fill="#db3429"/><path id="XMLID_2705_" d="m323 243.2-5.6-30.3c-5.4-29.6 17.3-56.8 47.3-56.8h84.7c30 0 52.7 27.1 47.4 56.6l-5.5 30.5h-31.7v24.9c-15.8 0-29.3-11.5-31.9-27.1l-4.8-29.5c-19.9 20.3-47.2 31.7-75.7 31.7z" fill="#1f3e75"/><path id="XMLID_2697_" d="m105 507c-37.7 0-68.3-30.6-68.3-68.3v-99.4h136.7v99.4c-.1 37.7-30.7 68.3-68.4 68.3z" fill="#ffc970"/><g id="XMLID_2696_"><path id="XMLID_3293_" d="m67 401h21v10h-21z" fill="#1f3e75"/></g><g id="XMLID_2695_"><path id="XMLID_3292_" d="m83 419h10v16h-10z" fill="#1f3e75"/></g><g id="XMLID_2694_"><path id="XMLID_3291_" d="m122 401h21v10h-21z" fill="#1f3e75"/></g><g id="XMLID_2693_"><path id="XMLID_3290_" d="m117 419h10v16h-10z" fill="#1f3e75"/></g><path id="XMLID_2671_" d="m105 323.4c-6.2-10.2-17.3-16.4-29.2-16.4h-1.4c-35.4 0-61.4 33.1-53.2 67.5l4.7 19.7h25.3c8 0 15.3-4.8 18.4-12.2l8-18.6c4.5-10.6 17.1-15.2 27.4-10 10.3-5.2 22.9-.6 27.4 10l8 18.6c3.2 7.4 10.4 12.2 18.4 12.2h25.3l4.7-19.7c8.2-34.4-17.9-67.5-53.2-67.5h-1.4c-11.9 0-23 6.2-29.2 16.4z" fill="#1f3e75"/><path id="XMLID_2670_" d="m121.7 447.7c0 7.9-6.4 14.3-14.3 14.3h-4.8c-7.9 0-14.3-6.4-14.3-14.3z" fill="#db3429"/><g id="XMLID_2641_"><path id="XMLID_1243_" d="m332 40h140v10h-140z" fill="#1f3e75"/></g><g id="XMLID_2640_"><path id="XMLID_1242_" d="m332 80h140v10h-140z" fill="#1f3e75"/></g><g id="XMLID_2638_"><path id="XMLID_1239_" d="m332 422h140v10h-140z" fill="#1f3e75"/></g><g id="XMLID_2637_"><path id="XMLID_1235_" d="m332 462h140v10h-140z" fill="#1f3e75"/></g><g id="XMLID_2636_"><path id="XMLID_1234_" d="m166 251h70v10h-70z" fill="#1f3e75"/></g><g fill="#ffb233"><path id="XMLID_4081_" d="m110.9 145.7h8.2c3.5 0 6.4-2.9 6.4-6.4 0-3.5-2.9-6.4-6.4-6.4h-8.2c-3.5 0-6.4 2.9-6.4 6.4 0 3.6 2.9 6.4 6.4 6.4z"/><path id="XMLID_4308_" d="m186.9 145.7h8.2c3.5 0 6.4-2.9 6.4-6.4 0-3.5-2.9-6.4-6.4-6.4h-8.2c-3.5 0-6.4 2.9-6.4 6.4 0 3.6 2.9 6.4 6.4 6.4z"/><path id="XMLID_1174_" d="m341.1 296.7h-8.2c-3.5 0-6.4-2.9-6.4-6.4 0-3.5 2.9-6.4 6.4-6.4h8.2c3.5 0 6.4 2.9 6.4 6.4 0 3.6-2.9 6.4-6.4 6.4z"/><path id="XMLID_1227_" d="m417.1 296.7h-8.2c-3.5 0-6.4-2.9-6.4-6.4 0-3.5 2.9-6.4 6.4-6.4h8.2c3.5 0 6.4 2.9 6.4 6.4 0 3.6-2.9 6.4-6.4 6.4z"/><path id="XMLID_1223_" d="m71.1 447.7h-8.3c-3.5 0-6.4-2.8-6.4-6.4 0-3.5 2.8-6.4 6.4-6.4h8.3c3.5 0 6.4 2.8 6.4 6.4 0 3.5-2.8 6.4-6.4 6.4z"/><path id="XMLID_1233_" d="m147.1 447.7h-8.3c-3.5 0-6.4-2.8-6.4-6.4 0-3.5 2.8-6.4 6.4-6.4h8.3c3.5 0 6.4 2.8 6.4 6.4 0 3.5-2.8 6.4-6.4 6.4z"/></g><path id="XMLID_1246_" d="m120 313c0-1.4 1.7-2.9 4.1-4.4-7.9 2.4-14.7 7.6-19.1 14.9-4.4-7.2-11.3-12.4-19.1-14.9 2.4 1.5 4.1 3 4.1 4.4 0 4.8-19.7 10.4-19.3 14.9.5 4.8 20.9 6.3 21.9 10.7 1.1 4.9-16.7 15.1-15.1 19.1.3.9 1.2 1.4 2.5 1.7 5.7-7.6 16.2-10.4 25.1-6 8.9-4.4 19.4-1.7 25.1 6 1.3-.3 2.2-.8 2.5-1.7 1.6-4-16.2-14.2-15.1-19.1.9-4.3 21.4-5.8 21.9-10.6.2-4.6-19.5-10.2-19.5-15z" fill="#14294d"/></g></g></svg>