<svg id="Layer_1" enable-background="new 0 0 512 512" viewBox="0 0 512 512" xmlns="http://www.w3.org/2000/svg" xmlns:xlink="http://www.w3.org/1999/xlink"><linearGradient id="SVGID_1_" gradientUnits="userSpaceOnUse" x1="116.592" x2="395.409" y1="467.067" y2="-15.858"><stop offset="0" stop-color="#57ffd9"/><stop offset="1" stop-color="#2a6eff"/></linearGradient><path d="m477.21 36.59h-442.42c-18.632 0-33.79 15.158-33.79 33.789v310.45c0 18.631 15.158 33.789 33.79 33.789h114.63l-24 41.186c-2.382 4.089-2.415 8.948-.087 12.999 2.342 4.075 6.693 6.607 11.354 6.607h238.626c4.662 0 9.013-2.532 11.354-6.608 2.328-4.051 2.295-8.911-.087-12.999l-24-41.185h114.63c18.631 0 33.79-15.158 33.79-33.789v-310.45c0-18.631-15.158-33.789-33.79-33.789zm17.79 33.789v125.999h-158.9c-3.768-38.013-34.087-68.332-72.1-72.1v-71.688h213.21c9.81 0 17.79 7.98 17.79 17.789zm-478 141.999h158.9c3.768 38.013 34.087 68.332 72.1 72.1v71.688h-231zm239-72.5c35.565 0 64.5 28.935 64.5 64.5s-28.935 64.5-64.5 64.5-64.5-28.935-64.5-64.5 28.935-64.5 64.5-64.5zm8 144.6c38.013-3.768 68.332-34.087 72.1-72.1h158.9v143.788h-231zm-229.21-231.888h213.21v71.688c-38.013 3.768-68.332 34.087-72.1 72.1h-158.9v-125.999c0-9.809 7.981-17.789 17.79-17.789zm335.373 406.82h-228.326l26.102-44.792h176.123zm107.047-60.791h-442.42c-9.809 0-17.79-7.98-17.79-17.789v-8.664h478v8.664c0 9.809-7.98 17.789-17.79 17.789zm-137.932-229.844h80.667c3.064 0 6.014-1.285 8.093-3.525 2.078-2.24 3.139-5.278 2.91-8.333-1.379-18.376-12.487-34.011-28.009-41.976 5.075-5.594 8.172-13.015 8.172-21.145 0-17.369-14.131-31.5-31.5-31.5s-31.5 14.131-31.5 31.5c0 8.13 3.097 15.551 8.172 21.145-15.522 7.965-26.63 23.601-28.009 41.976-.229 3.056.832 6.094 2.91 8.334 2.08 2.24 5.029 3.524 8.094 3.524zm24.834-74.98c0-8.546 6.953-15.5 15.5-15.5s15.5 6.953 15.5 15.5c0 8.545-6.95 15.496-15.493 15.5-.002 0-.004 0-.007 0s-.004 0-.007 0c-8.543-.003-15.493-6.955-15.493-15.5zm15.489 31.5h.01s.007 0 .01 0c16.627.005 30.885 11.706 34.556 27.48h-69.131c3.67-15.774 17.928-27.475 34.555-27.48zm51.347 200.357c-1.379-18.376-12.487-34.011-28.009-41.976 5.075-5.594 8.172-13.014 8.172-21.145 0-17.369-14.131-31.5-31.5-31.5s-31.5 14.131-31.5 31.5c0 8.13 3.097 15.551 8.172 21.145-15.522 7.965-26.63 23.601-28.009 41.976-.229 3.056.831 6.093 2.91 8.333s5.028 3.525 8.093 3.525h80.667c3.064 0 6.014-1.285 8.093-3.525s3.14-5.277 2.911-8.333zm-66.836-63.121c0-8.547 6.953-15.5 15.5-15.5s15.5 6.953 15.5 15.5c0 8.546-6.953 15.5-15.5 15.5-8.547-.001-15.5-6.954-15.5-15.5zm-19.066 58.979c3.671-15.778 17.934-27.48 34.565-27.48 16.632 0 30.895 11.702 34.566 27.48zm-252.991-152.735h80.667c3.065 0 6.015-1.286 8.094-3.526s3.139-5.279 2.909-8.333c-1.379-18.376-12.487-34.011-28.009-41.976 5.075-5.594 8.172-13.014 8.172-21.145 0-17.369-14.131-31.5-31.5-31.5s-31.5 14.131-31.5 31.5c0 8.13 3.097 15.551 8.172 21.145-15.521 7.965-26.63 23.601-28.009 41.976v.002c-.229 3.056.833 6.093 2.911 8.333 2.08 2.24 5.029 3.524 8.093 3.524zm24.834-74.98c0-8.546 6.953-15.5 15.5-15.5 8.546 0 15.5 6.953 15.5 15.5 0 8.545-6.95 15.496-15.493 15.5-.002 0-.004 0-.007 0s-.004 0-.007 0c-8.544-.003-15.493-6.955-15.493-15.5zm15.489 31.5h.01s.007 0 .01 0c16.627.005 30.885 11.704 34.555 27.48h-69.13c3.67-15.774 17.928-27.475 34.555-27.48zm23.338 158.381c5.075-5.594 8.172-13.014 8.172-21.145 0-17.369-14.131-31.5-31.5-31.5s-31.5 14.131-31.5 31.5c0 8.13 3.097 15.551 8.172 21.145-15.522 7.965-26.63 23.601-28.009 41.976v.002c-.229 3.056.833 6.092 2.911 8.332 2.078 2.239 5.027 3.524 8.091 3.524h80.667c3.065 0 6.016-1.285 8.094-3.526s3.138-5.278 2.908-8.332c-1.376-18.376-12.484-34.011-28.006-41.976zm-38.827-21.145c0-8.547 6.953-15.5 15.5-15.5 8.546 0 15.5 6.953 15.5 15.5 0 8.546-6.953 15.5-15.5 15.5-8.547-.001-15.5-6.954-15.5-15.5zm-19.066 58.979c3.671-15.778 17.934-27.48 34.566-27.48 16.63 0 30.893 11.702 34.565 27.48zm135.693-79.795c1.869 1.079 3.965 1.618 6.062 1.618 2.102 0 4.205-.542 6.081-1.625l46.449-26.816c3.742-2.16 6.066-6.19 6.066-10.516s-2.325-8.354-6.066-10.513l-46.448-26.815c-3.748-2.164-8.402-2.168-12.144-.007-3.743 2.16-6.067 6.191-6.067 10.52v53.635c-.001 4.328 2.324 8.359 6.067 10.519zm9.932-57.469 34.871 20.132-34.871 20.132z" fill="url(#SVGID_1_)"/></svg>