<?xml version="1.0" encoding="UTF-8"?>
<svg xmlns="http://www.w3.org/2000/svg" xmlns:xlink="http://www.w3.org/1999/xlink" version="1.1" id="Capa_1" x="0px" y="0px" viewBox="0 0 512 512" style="enable-background:new 0 0 512 512;" xml:space="preserve" width="512" height="512">
<g>
	<path style="fill:#D8ECFE;" d="M272.172,331.993c0-14.986-10.655-32.507-10.655-32.507s0,0,0,0&#10;&#9;&#9;c39.756-2.459,79.21,8.284,112.231,30.559l2.888,1.948l2.888-1.948c33.021-22.275,72.475-33.018,112.231-30.559h0&#10;&#9;&#9;c0,0-10.655,17.521-10.655,32.507L376.636,344.8L272.172,331.993z"/>
	<path style="fill:#528FD8;" d="M215.931,112.121l-31.901,31.901c-5.336,5.336-13.988,5.336-19.324,0L91.14,70.457&#10;&#9;&#9;c-5.336-5.336-5.336-13.988,0-19.324l31.901-31.901c5.336-5.336,13.988-5.336,19.324,0l73.565,73.565&#10;&#9;&#9;C221.267,98.133,221.267,106.784,215.931,112.121z"/>
	<path style="fill:#0573CE;" d="M202.638,125.408l-18.609,18.609c-5.339,5.339-13.989,5.339-19.328,0l-73.56-73.56&#10;&#9;&#9;c-5.339-5.339-5.339-13.989,0-19.328l18.777-18.776c-5.339,5.339-5.339,13.989,0,19.328l73.56,73.57&#10;&#9;&#9;C188.757,130.521,197.289,130.58,202.638,125.408z"/>
	<path style="fill:none;stroke:#000000;stroke-width:15;stroke-linecap:round;strokeLinejoin:round;stroke-miterlimit:10;" d="&#10;&#9;&#9;M119.55,98.869L91.138,70.458c-5.33-5.339-5.33-13.989,0-19.328l31.908-31.899c5.33-5.339,13.979-5.339,19.318,0l28.411,28.411"/>
	<g>
		<rect x="48.065" y="387.261" style="fill:#BC7C63;" width="50.301" height="109.513"/>
		<rect x="48.065" y="387.261" style="fill:#AA6A51;" width="19.326" height="109.513"/>
		<rect x="413.635" y="387.261" style="fill:#BC7C63;" width="50.301" height="109.513"/>
		<rect x="48.065" y="387.261" style="fill:#AA6A51;" width="50.301" height="37.845"/>
		<rect x="413.635" y="387.261" style="fill:#AA6A51;" width="50.301" height="37.845"/>
		<rect x="413.635" y="387.261" style="fill:#AA6A51;" width="19.326" height="109.513"/>
	</g>
	<path style="fill:#7A6D79;" d="M145.08,348.122c-53.445,0-96.927-43.481-96.927-96.927c0-53.445,43.481-96.926,96.927-96.926&#10;&#9;&#9;c8.161,0,14.777,6.616,14.777,14.777c0,8.161-6.616,14.777-14.777,14.777c-37.149,0-67.373,30.223-67.373,67.372&#10;&#9;&#9;s30.224,67.373,67.373,67.373c8.161,0,14.777,6.616,14.777,14.777S153.241,348.122,145.08,348.122z"/>
	<path style="fill:none;stroke:#000000;stroke-width:15;stroke-linecap:round;strokeLinejoin:round;stroke-miterlimit:10;" d="&#10;&#9;&#9;M129.933,316.849c-29.879-6.896-52.222-33.721-52.222-65.659c0-35.553,27.682-64.753,62.625-67.196"/>
	<path style="fill:none;stroke:#000000;stroke-width:15;stroke-linecap:round;strokeLinejoin:round;stroke-miterlimit:10;" d="&#10;&#9;&#9;M48.31,256.49c-0.1-1.75-0.15-3.52-0.15-5.3c0-47.99,35.05-87.94,80.91-95.58"/>
	<path style="fill:none;stroke:#000000;stroke-width:15;stroke-linecap:round;strokeLinejoin:round;stroke-miterlimit:10;" d="&#10;&#9;&#9;M73.85,316.85c-7.15-7.75-13.06-16.67-17.4-26.44"/>
	<path style="fill:#BC7C63;" d="M487.33,406.131H24.671c-9.483,0-17.17-7.687-17.17-17.17v-14.183c0-9.483,7.687-17.17,17.17-17.17&#10;&#9;&#9;H487.33c9.483,0,17.17,7.687,17.17,17.17v14.183C504.5,398.443,496.813,406.131,487.33,406.131z"/>
	<path style="fill:#AA6A51;" d="M65.15,406.131H24.671c-9.487,0-17.171-7.684-17.171-17.171v-14.186&#10;&#9;&#9;c0-9.477,7.684-17.171,17.171-17.171H65.15c-9.487,0-17.171,7.694-17.171,17.171v14.186&#10;&#9;&#9;C47.979,398.447,55.663,406.131,65.15,406.131z"/>
	<path style="fill:none;stroke:#000000;stroke-width:15;stroke-linecap:round;strokeLinejoin:round;stroke-miterlimit:10;" d="&#10;&#9;&#9;M381.35,406.13h105.98c9.48,0,17.17-7.69,17.17-17.17v-14.18c0-9.49-7.69-17.17-17.17-17.17H24.67c-9.48,0-17.17,7.68-17.17,17.17&#10;&#9;&#9;v14.18c0,9.48,7.69,17.17,17.17,17.17h321.68"/>
	<g>
		
			<rect x="48.065" y="406.131" style="fill:none;stroke:#000000;stroke-width:15;stroke-linecap:round;strokeLinejoin:round;stroke-miterlimit:10;" width="50.301" height="90.643"/>
		
			<rect x="413.635" y="406.131" style="fill:none;stroke:#000000;stroke-width:15;stroke-linecap:round;strokeLinejoin:round;stroke-miterlimit:10;" width="50.301" height="90.643"/>
	</g>
	<path style="fill:#D9B1EE;" d="M487.33,331.993H265.943c-7.073,0-12.807,5.734-12.807,12.807v0c0,7.073,5.734,12.807,12.807,12.807&#10;&#9;&#9;H487.33c7.073,0,12.807-5.734,12.807-12.807v0C500.137,337.727,494.403,331.993,487.33,331.993z"/>
	<path style="fill:none;stroke:#000000;stroke-width:15;stroke-linecap:round;strokeLinejoin:round;stroke-miterlimit:10;" d="&#10;&#9;&#9;M487.33,331.993H265.943c-7.073,0-12.807,5.734-12.807,12.807v0c0,7.073,5.734,12.807,12.807,12.807H487.33&#10;&#9;&#9;c7.073,0,12.807-5.734,12.807-12.807v0C500.137,337.727,494.403,331.993,487.33,331.993z"/>
	<path style="fill:none;stroke:#000000;stroke-width:15;stroke-linecap:round;strokeLinejoin:round;stroke-miterlimit:10;" d="&#10;&#9;&#9;M481.1,331.993c0-14.986,10.655-32.507,10.655-32.507h0c-39.756-2.459-79.21,8.284-112.231,30.559l-2.888,1.948"/>
	<path style="fill:none;stroke:#000000;stroke-width:15;stroke-linecap:round;strokeLinejoin:round;stroke-miterlimit:10;" d="&#10;&#9;&#9;M376.636,331.993l2.031-2.83c23.219-32.364,56.48-56.151,94.611-67.664h0"/>
	<path style="fill:none;stroke:#000000;stroke-width:15;stroke-linecap:round;strokeLinejoin:round;stroke-miterlimit:10;" d="&#10;&#9;&#9;M376.636,331.993l-2.031-2.83c-23.219-32.364-56.48-56.151-94.611-67.664h0"/>
	<path style="fill:#528FD8;" d="M186.242,316.855H44.651c-11.254,0-20.376,9.123-20.376,20.376v0&#10;&#9;&#9;c0,11.254,9.123,20.376,20.376,20.376h141.592c11.254,0,20.376-9.123,20.376-20.376v0&#10;&#9;&#9;C206.619,325.977,197.496,316.855,186.242,316.855z"/>
	<path style="fill:#0573CE;" d="M90.554,351.634c3.684,3.684,8.777,5.97,14.412,5.97h-60.32c-5.625,0-10.718-2.286-14.403-5.97&#10;&#9;&#9;c-3.694-3.685-5.97-8.778-5.97-14.403c0-11.25,9.122-20.373,20.372-20.373h60.32c-11.26,0-20.382,9.123-20.382,20.373&#10;&#9;&#9;C84.584,342.856,86.86,347.949,90.554,351.634z"/>
	<path style="fill:none;stroke:#000000;stroke-width:15;stroke-linecap:round;strokeLinejoin:round;stroke-miterlimit:10;" d="&#10;&#9;&#9;M186.242,316.855H44.651c-11.254,0-20.376,9.123-20.376,20.376v0c0,11.254,9.123,20.376,20.376,20.376h141.592&#10;&#9;&#9;c11.254,0,20.376-9.123,20.376-20.376v0C206.619,325.977,197.496,316.855,186.242,316.855z"/>
	<g>
		<circle style="fill:#FEE97D;" cx="239.942" cy="168.033" r="42.497"/>
		<path style="fill:none;stroke:#000000;stroke-width:15;stroke-linecap:round;strokeLinejoin:round;stroke-miterlimit:10;" d="&#10;&#9;&#9;&#9;M209.886,198.084c16.594,16.594,43.502,16.594,60.106-0.009c16.594-16.594,16.594-43.502,0-60.096"/>
		<path style="fill:#528FD8;" d="M297.022,110.952L182.861,225.113c-8.869,8.869-23.921,5.759-28.549-5.899l-40.024-100.825&#10;&#9;&#9;&#9;c-2.459-6.196-1-13.261,3.714-17.974l54.321-54.321c4.714-4.714,11.779-6.173,17.974-3.714l100.825,40.024&#10;&#9;&#9;&#9;C302.782,87.031,305.892,102.083,297.022,110.952z"/>
		<path style="fill:#0573CE;" d="M133.195,85.231l80.751,108.797l-31.086,31.086c-8.869,8.869-23.921,5.759-28.549-5.899&#10;&#9;&#9;&#9;l-40.021-100.819c-2.459-6.196-1-13.261,3.714-17.974L133.195,85.231z"/>
		<path style="fill:none;stroke:#000000;stroke-width:15;stroke-linecap:round;strokeLinejoin:round;stroke-miterlimit:10;" d="&#10;&#9;&#9;&#9;M273,75.21l18.12,7.19c11.66,4.63,14.77,19.68,5.9,28.55L182.86,225.11c-8.87,8.87-23.92,5.76-28.55-5.9l-40.02-100.82&#10;&#9;&#9;&#9;c-2.46-6.2-1-13.26,3.71-17.98l54.32-54.32c4.72-4.71,11.78-6.17,17.98-3.71l50.48,20.04"/>
	</g>
	<path style="fill:none;stroke:#000000;stroke-width:15;stroke-linecap:round;strokeLinejoin:round;stroke-miterlimit:10;" d="&#10;&#9;&#9;M376.636,331.993l-2.888-1.948c-33.021-22.275-72.475-33.018-112.231-30.559c0,0,0,0,0,0s10.655,17.521,10.655,32.507"/>
</g>















</svg>
