<svg id="Capa_1" enable-background="new 0 0 509.998 509.998" height="512" viewBox="0 0 509.998 509.998" width="512" xmlns="http://www.w3.org/2000/svg"><g><path d="m194.999 119.998c0 33.084 26.916 60 60 60l10-60-10-60c-33.084 0-60 26.916-60 60z" fill="#97de3d"/><path d="m87.616 54.891c-41.716 26.894-67.52 53.599-68.598 54.723l-9.65 10.059 9.325 10.36c1.133 1.258 25.979 28.634 66.354 55.324l27.522-18.059c-27.92-16.986-49.421-35.713-61.284-46.997 54.126-48.873 129.583-90.303 203.713-90.303l10-14.833-9.999-15.165c-58.777-.113-117.328 22.621-167.383 54.891z" fill="#453d81"/><path d="m71.858 210.257c-7.259 13.704-17.66 33.342-27.015 51.004v.027.027l28.521 24.022c32.658-5.388 31.198-5.214 31.636-5.214v-58.999l-16.572-15.434z" fill="#ffd2c5"/><path d="m104.999 221.124v58.999l31.372 5.158 28.468-24.047c-10.503-19.803-22.393-42.222-26.947-50.807l-17.319-4.368z" fill="#ffc5b2"/><path d="m44.843 261.315v248.683h60.156l10-114.938-10-114.938c-22.299.001-42.916-6.779-60.156-18.807z" fill="#ffe278"/><path d="m164.843 261.242-.002-.004-.002-.004c-17.49 12.238-38.223 18.845-59.84 18.889v229.875h59.844c0-13.792 0-234.921 0-248.756z" fill="#ffc178"/><g><path d="m104.999 165.123c-5.585-.064-10.442 2.876-13.096 7.287l-20.046 37.847c9.281 6.826 20.737 10.866 33.142 10.866l10-25.125z" fill="#38336b"/><path d="m117.727 172.405c-2.69-4.469-7.506-7.224-12.727-7.282v56c12.081 0 23.47-3.836 32.896-10.691z" fill="#2e2654"/></g><path d="m490.667 109.614c-1.078-1.124-26.882-27.829-68.598-54.723-55.649-35.876-113.415-54.854-167.07-54.891v29.998c60.278 0 114.87 27.027 150.183 49.701 23.658 15.19 42.041 30.536 52.882 40.299-53.991 48.625-129.122 89.94-203.065 89.998-.052 0-.104.002-.156.002v30c.052 0 .105-.002.156-.002 53.654-.036 111.421-19.014 167.07-54.891 41.716-26.894 67.52-53.599 68.598-54.723l9.963-10.385z" fill="#38336b"/><path d="m254.999 59.998v120c33.084 0 60-26.916 60-60s-26.916-60-60-60z" fill="#59c36a"/><path d="m224.999 119.998c0 16.542 13.458 30 30 30l10-30-10-30c-16.542 0-30 13.458-30 30z" fill="#453d81"/><path d="m254.999 89.998v60c16.542 0 30-13.458 30-30s-13.458-30-30-30z" fill="#38336b"/></g></svg>